<?xml version="1.0" encoding="UTF-8" standalone="no"?>
<!-- Created with Inkscape (http://www.inkscape.org/) -->

<svg
   version="1.1"
   id="svg1"
   width="856.74823"
   height="867.97833"
   viewBox="0 0 856.74823 867.97833"
   xmlns="http://www.w3.org/2000/svg"
   xmlns:svg="http://www.w3.org/2000/svg">
  <defs
     id="defs1" />
  <g
     id="g1"
     transform="translate(-107.1625,-94.95887)">
    <path
       style="fill:#4f7ef3;fill-opacity:1"
       d="m 817.5,952.84954 c -25.25591,-15.82028 -52.81321,-28.38693 -86,-39.21763 -85.69058,-27.9656 -175.07905,-32.27826 -261.5,-12.61639 -40.34455,9.17889 -75.07655,22.02511 -119.17755,44.07983 l -21.67755,10.84085 -0.56539,-2.7181 c -2.23722,-10.75537 -5.77448,-36.05582 -6.67148,-47.7181 -2.9838,-38.79365 4.73436,-82.88237 21.26977,-121.5 21.06117,-49.18731 61.06796,-94.16362 112.58688,-126.57206 l 8.26468,-5.19897 -9.66331,-6.84981 c -12.6614,-8.97501 -23.50037,-18.53448 -36.23055,-31.95368 -27.55681,-29.04833 -46.53327,-62.16911 -52.59215,-91.79227 -1.87614,-9.17284 -2.14529,-28.73104 -0.52154,-37.89806 7.22409,-40.78412 35.1936,-66.33807 78.58712,-71.80004 18.83429,-2.37068 37.8145,-0.18725 77.9963,8.97249 38.95142,8.87925 59.98211,12.66859 86.89477,15.65679 18.06434,2.00574 52.79501,2.27368 67,0.51689 57.65635,-7.13062 96.81602,-29.28091 125.30682,-70.87859 15.61548,-22.7992 26.25689,-49.33071 31.366,-78.20269 2.02678,-11.45352 1.69384,-44.0418 -0.57725,-56.5 -2.63686,-14.4647 -7.08482,-28.60764 -12.25225,-38.95786 -4.90295,-9.82048 -15.12791,-25.71217 -20.56266,-31.95862 l -3.40755,-3.91649 -4.55744,5.91649 c -16.96828,22.0283 -46.49638,40.42947 -77.59973,48.35821 -21.31563,5.43369 -46.52955,7.60565 -70.11395,6.0397 C 616.24997,215.19851 599.45641,212.31788 552,201.35449 484.83411,185.83782 457.15492,181.5963 415,180.36078 c -77.54037,-2.27263 -145.32923,18.756 -195.18879,60.54909 -32.85143,27.5366 -58.00435,68.00818 -69.29667,111.49979 -5.90994,22.76172 -7.02133,32.19988 -6.95817,59.09034 0.0619,26.35035 1.4424,37.75138 7.3294,60.53011 9.709,37.56728 35.74183,77.77907 77.044,119.00653 32.33035,32.27186 55.16701,48.81374 110.37358,79.94978 7.04185,3.97154 12.66685,7.73682 12.5,8.36728 -0.58129,2.19657 -14.82231,29.53998 -15.65215,30.05285 C 333.3991,710.48941 278.49413,678.34794 260.5,665.70559 205.75965,627.24602 158.16387,574.15563 131.8964,522.25558 121.41474,501.54559 115.51844,483.04947 111.09385,457 c -13.703636,-80.67938 8.779,-160.89456 61.80152,-220.5 36.16641,-40.65657 90.59878,-71.08277 150.10467,-83.90438 28.82506,-6.21088 47.46796,-8.03979 81.99996,-8.0444 48.35088,-0.006 78.9919,4.17604 149.19366,20.3649 18.86849,4.35116 39.03134,8.84401 44.80634,9.9841 46.90712,9.26035 83.60039,8.67302 114.98102,-1.84046 17.94237,-6.01125 31.53891,-14.53232 43.5475,-27.29161 9.56669,-10.16474 13.03133,-15.76917 20.1105,-32.53086 2.95872,-7.00551 5.93783,-13.984044 6.62024,-15.507855 L 785.5,94.958869 801.58125,110.72943 c 46.34326,45.44793 65.5336,85.69809 68.06967,142.77057 1.94581,43.78909 -12.19587,92.65009 -37.97434,131.20538 C 799.9459,432.16301 753.05265,461.32821 693,470.9551 c -48.97811,7.85157 -97.62002,3.71874 -181.34986,-15.40827 -26.33383,-6.01562 -35.12844,-7.4981 -48.65014,-8.20079 -24.66529,-1.28179 -44.67064,6.41136 -54.26677,20.86854 -4.43465,6.68108 -8.29272,17.96911 -9.19558,26.90461 -2.26001,22.36696 9.78372,51.72175 32.98892,80.40557 15.6389,19.33116 44.2412,43.88754 62.83173,53.94391 l 5.28649,2.85968 15.9276,-7.04707 C 549.06394,610.90561 583.11933,599.07511 630,585.87766 c 63.23283,-17.80077 90.61792,-26.72051 110.26856,-35.91615 l 6.34253,-2.96803 1.27052,-7.56127 c 2.81985,-16.78186 9.23337,-29.5487 20.60363,-41.01385 10.20674,-10.29192 17.27085,-14.42275 24.63649,-14.40649 23.49478,0.0519 47.47848,20.60445 55.93373,47.93189 0.93606,3.02534 2.31901,5.80764 3.07323,6.18289 0.75422,0.37525 5.87131,2.78451 11.37131,5.35391 42.84573,20.01597 74.3407,60.60472 96.03383,123.7624 l 4.3769,12.74296 -6.70537,5.3896 c -18.47929,14.85317 -38.93805,24.62186 -60.75794,29.01085 -4.37108,0.87922 -14.69742,2.29394 -22.94742,3.14381 -30.57399,3.14958 -48.21063,9.51782 -58.39164,21.08405 -2.12328,2.41218 -4.21546,4.38577 -4.64931,4.38577 -0.62359,0 -28.94565,-15.49768 -30.30544,-16.58298 -0.19052,-0.15206 1.14397,-2.44559 2.96552,-5.09674 15.89624,-23.13593 42.29758,-35.02365 88.38087,-39.79521 8.25,-0.85422 18.5336,-2.46185 22.85244,-3.57252 8.82841,-2.27038 20.95471,-7.13345 24.49292,-9.82252 l 2.34537,-1.7825 -3.66817,-8.92376 C 902.12467,619.9644 877.59008,590.43538 850.5,576.75765 c -5.68333,-2.8695 -18.92986,-7.18955 -25.23442,-8.22962 -4.7253,-0.77954 -3.98042,0.76321 -8.1239,-16.82594 -3.07325,-13.04598 -6.51702,-19.9305 -12.87745,-25.74357 C 801.28026,523.23133 798.25245,521 797.53577,521 c -1.82097,0 -8.02985,7.08799 -10.56939,12.06591 -3.17924,6.23182 -5.15402,17.27768 -4.78793,26.78104 l 0.32155,8.34695 -11.48159,6.40705 c -25.49144,14.22495 -51.07293,23.3449 -118.51841,42.2525 -46.90727,13.14994 -82.31861,24.74023 -105.93526,34.67308 l -3.93525,1.65512 9.18261,3.84476 c 5.05043,2.11462 24.8213,9.76463 43.93525,17.00001 73.04557,27.65062 98.15762,39.31092 130.34055,60.52116 29.27594,19.29439 54.42611,43.76002 70.88164,68.95242 6.99172,10.70388 17.11833,31.6114 21.49483,44.37849 7.99572,23.32501 10.78742,37.71855 13.01854,67.12151 0.85556,11.275 1.99653,25.225 2.53549,31 1.17522,12.59261 1.23579,17.0217 0.2316,16.93596 -0.4125,-0.0352 -7.95,-4.57411 -16.75,-10.08642 z m -440,-59.84469 c 47.20525,-19.9469 97.09259,-32.76774 150.5,-38.67787 19.48525,-2.15627 77.08195,-2.4843 96,-0.54676 59.6744,6.1117 116.40472,20.71527 163.25,42.02395 7.68606,3.49619 7.41114,3.902 5.21165,-7.69273 C 782.64539,836.36431 755.14714,797.04131 706,764.46972 676.93811,745.20934 653.36507,734.28051 586.38149,709.01268 547.70364,694.42246 529.04429,686.83849 511.72237,678.66796 l -11.5915,-5.46756 -9.81543,5.51897 c -49.34896,27.74765 -87.70065,65.81252 -108.67483,107.86209 -15.93881,31.95454 -23.02422,60.29028 -24.33658,97.32607 -0.59536,16.80159 -0.55047,17.38792 1.28957,16.84416 1.04852,-0.30985 9.5564,-3.79593 18.9064,-7.74684 z M 831.42926,642.10719 c -14.63496,-6.64705 -15.73849,-27.56731 -1.88249,-35.68747 11.49893,-6.73882 25.93027,-0.50299 29.49789,12.74613 4.20451,15.61435 -12.74521,29.69523 -27.6154,22.94134 z"
       id="path1" />
  </g>
</svg>
