<?xml version="1.0" encoding="utf-8"?>
<!-- Generator: Adobe Illustrator 28.0.0, SVG Export Plug-In . SVG Version: 6.00 Build 0)  -->
<svg version="1.1" id="Layer_1" xmlns="http://www.w3.org/2000/svg" xmlns:xlink="http://www.w3.org/1999/xlink" x="0px" y="0px"
	 viewBox="0 0 227.15 208.38" style="enable-background:new 0 0 227.15 208.38;" xml:space="preserve">
<style type="text/css">
	.st0{display:none;}
	.st1{display:inline;}
	.st2{font-family:'Poppins-SemiBold';}
	.st3{font-size:155.0914px;}
	.st4{fill-rule:evenodd;clip-rule:evenodd;fill:#380067;}
	.st5{fill-rule:evenodd;clip-rule:evenodd;fill:#FFFFFF;}
</style>
<g class="st0">
	<text transform="matrix(1 0 0 1 206.9958 59.1574)" class="st1 st2 st3">otto8</text>
	<g transform="matrix(2.51673,0,0,2.51673,9659.41,-9226.53)" class="st1">
		<g id="icon-black">
			<path id="otto8-icon-black" class="st4" d="M-3805.44,3610.13c-2.84,0-5.18,2.34-5.18,5.18l0,0c0.01,1.89,1.05,3.63,2.71,4.54
				v12.11h-17.67c-6.58,0-12.34,3.52-15.49,8.77c-0.23-0.04-0.46-0.06-0.69-0.09c-4.81,0-8.77,3.96-8.77,8.77l0,0
				c0,4.81,3.96,8.77,8.77,8.77c0.06,0,0.11-0.01,0.17-0.01c3.02,5.74,9.07,9.67,16.02,9.67h40.29c6.95,0,13-3.93,16.02-9.68
				c0.06,0,0.11,0.01,0.17,0.02c4.81,0,8.77-3.96,8.77-8.77l0,0c0-4.81-3.96-8.77-8.77-8.77c-0.23,0.02-0.46,0.05-0.69,0.09
				c-3.16-5.24-8.92-8.77-15.49-8.77h-17.67v-12.11c1.66-0.91,2.7-2.65,2.71-4.54l0,0
				C-3800.26,3612.47-3802.59,3610.13-3805.44,3610.13L-3805.44,3610.13z M-3825.58,3637.63h7.59c-0.01,0.11-0.02,0.21-0.02,0.33
				c0,2.56,2.06,4.63,4.63,4.63h15.89c2.56,0,4.63-2.06,4.63-4.63c0-0.11-0.01-0.22-0.02-0.33h7.59c6.92,0,12.38,5.43,12.38,12.26
				c0,6.83-5.46,12.26-12.38,12.26h-40.29c-6.92,0-12.38-5.43-12.38-12.26C-3837.96,3643.06-3832.5,3637.63-3825.58,3637.63
				L-3825.58,3637.63z M-3826.42,3643.81L-3826.42,3643.81c-3.34,0-6.08,2.74-6.08,6.08l0,0c0,3.33,2.74,6.08,6.08,6.08l0,0
				c3.34,0,6.08-2.75,6.08-6.08l0,0C-3820.34,3646.55-3823.08,3643.81-3826.42,3643.81z M-3784.45,3643.81
				c-3.34,0-6.08,2.74-6.08,6.08l0,0c0,3.33,2.74,6.08,6.08,6.08l0,0c3.34,0,6.08-2.75,6.08-6.08l0,0
				C-3778.37,3646.55-3781.12,3643.81-3784.45,3643.81L-3784.45,3643.81z M-3813.63,3647.45c0,4.53,3.67,8.2,8.2,8.2
				c4.53,0,8.2-3.67,8.2-8.2H-3813.63z M-3826.81,3672.16c-0.21,1.19-0.32,2.41-0.32,3.66v5.99c-4.39,1.6-7.52,5.8-7.52,10.74h22.89
				c0-4.99-3.21-9.23-7.67-10.79v-5.93c0-1.25,0.16-2.46,0.47-3.61h-6.61C-3826,3672.21-3826.41,3672.19-3826.81,3672.16z
				 M-3784.06,3672.16c-0.41,0.03-0.82,0.05-1.23,0.05h-6.61c0.3,1.15,0.47,2.36,0.47,3.61v5.93c-4.46,1.56-7.67,5.8-7.67,10.79
				h22.89c0-4.94-3.14-9.14-7.52-10.74v-5.99C-3783.73,3674.57-3783.85,3673.35-3784.06,3672.16z M-3790.38,3684.45
				c1.59,0,2.83,1.19,2.83,2.88c0,1.69-1.24,2.88-2.83,2.88c-1.58,0-2.83-1.19-2.83-2.88
				C-3793.21,3685.64-3791.97,3684.45-3790.38,3684.45z M-3784.66,3684.45c1.2,0,1.82,0.66,1.82,1.46c0,0.6-0.34,1.06-0.89,1.27
				c0.63,0.19,1.03,0.69,1.03,1.38c0,1-0.79,1.64-1.96,1.64c-1.16,0-1.95-0.64-1.95-1.64c0-0.69,0.41-1.2,1.02-1.38
				c-0.56-0.22-0.89-0.65-0.89-1.27C-3786.47,3685.1-3785.86,3684.45-3784.66,3684.45z M-3784.66,3685.03
				c-0.68,0-1.14,0.33-1.14,0.98c0,0.57,0.47,0.94,1.14,0.94c0.68,0,1.15-0.38,1.15-0.95
				C-3783.51,3685.36-3783.96,3685.03-3784.66,3685.03z M-3790.38,3685.08c-1.19,0-2.08,0.86-2.08,2.24c0,1.38,0.89,2.24,2.08,2.24
				c1.19,0,2.08-0.86,2.08-2.24C-3788.31,3685.94-3789.19,3685.08-3790.38,3685.08z M-3784.66,3687.48c-0.71,0-1.28,0.32-1.28,1.05
				c0,0.65,0.5,1.09,1.28,1.09c0.79,0,1.27-0.44,1.27-1.09C-3783.38,3687.83-3783.93,3687.48-3784.66,3687.48z"/>
		</g>
	</g>
</g>
<g id="icon-black_00000129166214560931710720000014079342250062017976_">
	<path id="otto8-icon-black_00000052808708928244291080000007683698333036600744_" class="st5" d="M113.54,0.89
		c-7.15,0-13.03,5.89-13.03,13.03l0,0c0.01,4.75,2.63,9.15,6.81,11.42v30.48H62.84c-16.55,0-31.04,8.87-38.99,22.06
		c-0.58-0.1-1.16-0.16-1.74-0.22c-12.1,0-22.06,9.96-22.06,22.06l0,0c0,12.11,9.96,22.06,22.06,22.06c0.14-0.01,0.28-0.02,0.42-0.03
		c7.59,14.45,22.83,24.34,40.32,24.34h101.4c17.49,0,32.73-9.89,40.32-24.35c0.14,0.01,0.28,0.03,0.42,0.04
		c12.1,0,22.06-9.96,22.06-22.06l0,0c0-12.11-9.96-22.06-22.06-22.06c-0.58,0.05-1.17,0.12-1.74,0.22
		c-7.95-13.2-22.44-22.07-38.99-22.07h-44.48V25.34c4.18-2.28,6.8-6.66,6.81-11.42l0,0C126.57,6.77,120.69,0.89,113.54,0.89
		L113.54,0.89z M62.84,70.1h19.1c-0.02,0.27-0.04,0.54-0.04,0.82c0,6.45,5.19,11.64,11.65,11.64h39.99
		c6.45,0,11.65-5.19,11.65-11.64c0-0.28-0.02-0.55-0.04-0.82h19.1c17.42,0,31.16,13.66,31.16,30.85c0,17.18-13.75,30.85-31.16,30.85
		H62.84c-17.42,0-31.16-13.67-31.16-30.85C31.67,83.76,45.42,70.1,62.84,70.1L62.84,70.1z M60.73,85.65L60.73,85.65
		c-8.39,0-15.3,6.9-15.3,15.3l0,0c0,8.39,6.91,15.3,15.3,15.3l0,0c8.39,0,15.3-6.91,15.3-15.3l0,0
		C76.03,92.55,69.12,85.65,60.73,85.65z M166.35,85.65c-8.39,0-15.3,6.9-15.3,15.3l0,0c0,8.39,6.91,15.3,15.3,15.3l0,0
		c8.39,0,15.3-6.91,15.3-15.3l0,0C181.65,92.55,174.74,85.65,166.35,85.65L166.35,85.65z M92.91,94.82
		c0,11.39,9.23,20.63,20.62,20.63c11.39,0,20.62-9.23,20.62-20.63H92.91z M59.73,157.01c-0.52,2.99-0.82,6.06-0.82,9.2v15.07
		c-11.04,4.04-18.93,14.6-18.93,27.03H97.6c0-12.57-8.07-23.23-19.3-27.16v-14.94c0-3.15,0.41-6.19,1.17-9.08H62.84
		C61.79,157.13,60.76,157.08,59.73,157.01z M167.34,157.01c-1.03,0.08-2.06,0.12-3.1,0.12H147.6c0.76,2.89,1.17,5.93,1.17,9.08
		v14.94c-11.23,3.93-19.3,14.59-19.3,27.16h57.61c0-12.43-7.89-22.99-18.93-27.02v-15.08C168.16,163.07,167.86,160,167.34,157.01z"
		/>
</g>
</svg>
