<?xml version="1.0" encoding="UTF-8" standalone="no"?>
<!-- Created with Inkscape (http://www.inkscape.org/) -->

<svg
   version="1.1"
   id="svg1"
   width="1451.6656"
   height="495.3403"
   viewBox="0 0 1451.6656 495.3403"
   sodipodi:docname="acorn-logo-blue-black-text.svg"
   inkscape:version="1.4 (e7c3feb1, 2024-10-09)"
   xmlns:inkscape="http://www.inkscape.org/namespaces/inkscape"
   xmlns:sodipodi="http://sodipodi.sourceforge.net/DTD/sodipodi-0.dtd"
   xmlns="http://www.w3.org/2000/svg"
   xmlns:svg="http://www.w3.org/2000/svg">
  <sodipodi:namedview
     id="namedview1"
     pagecolor="#505050"
     bordercolor="#ffffff"
     borderopacity="1"
     inkscape:showpageshadow="0"
     inkscape:pageopacity="0"
     inkscape:pagecheckerboard="1"
     inkscape:deskcolor="#505050"
     inkscape:zoom="0.72744023"
     inkscape:cx="725.83282"
     inkscape:cy="247.44301"
     inkscape:window-width="1200"
     inkscape:window-height="1027"
     inkscape:window-x="2537"
     inkscape:window-y="55"
     inkscape:window-maximized="0"
     inkscape:current-layer="svg1" />
  <defs
     id="defs1" />
  <g
     id="g1"
     transform="translate(-137.4399,-242.15952)">
    <path
       id="path1"
       style="fill:#000000"
       d="m 349.9707,432.72852 c 0.14622,2.25219 0.68198,4.27531 1.45899,6.15429 -0.30939,-2.15672 -0.75758,-4.24216 -1.45899,-6.15429 z m 1168.1348,73.88281 c -2.8424,0.0183 -5.7658,0.17052 -8.7735,0.45508 -17.4794,1.65372 -33.9883,9.49799 -42.4101,20.15234 L 1463,532.17969 V 522.08984 512 h -24.5 -24.5 v 94 94 h 24.5 24.5 v -56.28906 c 0,-60.68484 0.1027,-62.05881 5.3984,-72.51758 3.0968,-6.11125 10.1971,-12.64635 17.4219,-16.0332 5.1568,-2.41746 6.7717,-2.66016 17.6758,-2.66016 10.8681,0 12.5188,0.24692 17.5,2.61328 10.3378,4.91104 17.0146,14.22951 19.0351,26.56641 0.5244,3.20142 0.959,31.13281 0.959,62.07031 L 1541,700 h 24.0527 24.0528 l -0.3731,-66.25 c -0.4219,-74.91946 -0.1953,-72.50895 -8.4531,-89.75 -3.8026,-7.93934 -5.8825,-10.82194 -12.6641,-17.54688 -13.6499,-13.53585 -29.613,-19.96968 -49.5097,-19.84179 z m -763.04886,0.041 c -23.77193,0.07 -43.57815,8.62325 -61.08789,26.26172 -12.7131,12.80656 -21.15763,27.60235 -26.20313,45.91016 -1.78677,6.48338 -2.12578,10.54895 -2.17578,26.17578 -0.051,15.94295 0.24768,19.7119 2.16211,27.27344 9.10954,35.98055 36.15078,63.66273 69.65625,71.30664 9.54842,2.17837 34.09101,1.27599 43.0918,-1.58399 12.71554,-4.04033 22.04852,-9.60207 30.47461,-18.16211 L 816,678.72852 V 689.36523 700 H 840.5 865 V 606 512 H 840.5 816 v 10.37109 10.37305 l -6.37109,-6.12305 c -11.95437,-11.48484 -26.27314,-17.80527 -44.13672,-19.48242 -3.56277,-0.33449 -7.03956,-0.49633 -10.43555,-0.48633 z m 413.99806,0.0137 c -26.4077,0.28501 -49.1563,9.79717 -67.8457,28.39453 -13.2039,13.13876 -21.9312,28.54987 -26.3809,46.58398 -2.9546,11.97473 -3.1716,35.03738 -0.4414,46.85547 4.0867,17.68961 11.8014,32.2346 23.9278,45.10938 15.5104,16.46778 31.4127,25.55596 52.3183,29.90039 9.9324,2.06406 36.4524,1.31672 45.8672,-1.29297 17.5416,-4.86235 30.918,-12.58901 43.5918,-25.17969 18.6594,-18.53697 27.487,-37.89033 29.4746,-64.62305 0.7219,-9.70801 -0.6677,-24.27603 -3.2344,-33.91406 -1.9716,-7.40322 -9.0349,-22.75302 -13.3652,-29.04688 -4.5217,-6.57208 -15.3789,-17.88442 -22.2148,-23.14453 -13.973,-10.75197 -31.9653,-17.63876 -50.1563,-19.19921 -3.9206,-0.33632 -7.7685,-0.48408 -11.541,-0.44336 z m -177.90822,0.28515 c -5.87623,-0.47348 -11.89312,-0.44655 -18.02343,0.0859 -23.80335,2.06759 -42.20753,10.20085 -58.46875,25.8418 C 893.65953,553.07286 884,576.11443 884,606 c 0,27.15784 8.86369,50.32481 26.26562,68.64453 14.7182,15.49443 31.99547,25.15771 51.56836,28.8457 5.24915,0.98906 12.55203,1.33854 23.16602,1.10938 13.34295,-0.28809 16.7533,-0.71028 24.5,-3.03516 22.1461,-6.64625 40.9177,-20.15323 52.8047,-37.99609 4.1853,-6.28234 4.4575,-7.04006 2.9062,-8.07422 C 1060.6455,652.45073 1026.2182,633 1025.3965,633 c -0.5175,0 -1.795,1.5849 -2.8379,3.52148 -2.6038,4.83492 -10.2559,11.78474 -16.4082,14.90235 -18.82111,9.53736 -42.35833,6.8271 -57.65626,-6.63867 -9.87845,-8.69536 -15.3266,-20.75169 -16.17187,-35.78516 -1.25102,-22.24977 8.70263,-40.48149 27.03515,-49.51758 21.83856,-10.76422 50.38128,-3.87732 62.30668,15.0332 1.8035,2.85982 3.3476,4.30317 4.2421,3.9629 2.2179,-0.84359 37.4493,-21.62671 38.8672,-22.92774 2.91,-2.6703 -13.1966,-22.45644 -25.2734,-31.04687 -14.3627,-10.21649 -30.7248,-16.1323 -48.35352,-17.55274 z M 1390.459,508 c -5.9949,0 -18.5387,3.01632 -25.3086,6.08594 -11.7233,5.3156 -19.6132,12.8599 -25.5352,24.41406 l -2.5625,5 -0.027,-15.75 L 1337,512 h -24 -24 v 94 94 h 24 24 l 0.018,-48.25 c 0.019,-52.31391 0.376,-56.67262 5.4668,-66.71875 C 1349.5867,571.01542 1366.5795,562 1385.8945,562 H 1394 v -27 -27 z m -626.24416,44.8418 c 13.54711,-0.0536 27.17052,4.85352 36.95313,14.73632 C 811.67589,578.19368 816,589.21822 816,605.39453 c 0,17.6087 -4.59856,29.25916 -15.61914,39.56836 -6.84306,6.40135 -15.77799,11.17957 -24.17969,12.93164 -17.70173,3.69146 -35.83601,-1.36739 -47.82812,-13.34375 -13.58913,-13.57127 -18.57206,-33.71914 -13.3711,-54.05469 2.42213,-9.47044 5.63066,-15.18078 12.7168,-22.62695 9.47745,-9.95899 22.94899,-14.97376 36.49609,-15.02734 z M 1170.1602,554 c 23.258,0 42.1024,13.43989 48.9707,34.92773 2.9254,9.15279 2.9337,24.96339 0.019,34.07227 -5.4218,16.94673 -19.6451,29.87891 -36.8809,33.53125 -25.3551,5.37287 -49.6606,-7.25291 -58.2715,-30.26758 C 1110.6979,590.71599 1134.152,554 1170.1602,554 Z m -680.91606,69.6582 c -0.59377,0.0577 -1.18748,0.11611 -1.78125,0.17383 0.7696,0.0108 1.77035,0.0285 1.9082,0.0273 0.41441,-0.004 -0.82918,-0.0242 -1.24218,-0.0586 -0.37331,-0.0311 0.74223,-0.10798 1.11523,-0.14258 z" />
    <path
       id="path2"
       style="fill:#4f7ef3;fill-opacity:1"
       d="m 524.3442,242.18686 c -0.34339,0.10262 -0.54988,0.4816 -0.77344,1.02344 -8.92496,21.6312 -15.98634,30.66085 -29.45117,37.66602 -12.42386,6.4636 -20.25177,8.27906 -38.17774,8.85351 -18.84122,0.60378 -27.36065,-0.55509 -61.4414,-8.35547 -13.2,-3.02121 -30.3,-6.5576 -38,-7.85937 -74.53652,-12.60112 -135.46722,2.25626 -176.03125,42.92383 -21.29214,21.34648 -34.07759,45.24346 -40.66016,75.99609 -3.15519,14.73897 -3.1579,42.50529 -0.008,58.25977 3.85851,19.29292 8.72458,31.51349 19.41015,48.74218 11.33085,18.26909 33.20235,42.69169 51.2793,57.26172 13.99229,11.27765 52.24535,35.30078 56.21094,35.30078 0.72286,0 3.22315,-3.88075 5.55664,-8.62304 3.58944,-7.29473 4.01123,-8.76177 2.74219,-9.53125 -0.825,-0.50024 -8.58365,-5.02789 -17.24024,-10.0625 -20.14649,-11.71703 -34.37342,-22.3127 -48.61719,-36.20508 -37.14438,-36.22803 -51.25058,-65.49182 -51.20898,-106.23438 0.023,-22.50122 4.19838,-40.03911 14.14258,-59.39843 18.451,-35.92029 52.45449,-59.95881 97.625,-69.01954 8.07256,-1.61926 15.89999,-2.29489 31.00195,-2.67187 29.85121,-0.74515 46.36268,1.33233 89.08203,11.20508 35.25916,8.14865 40.84497,8.95231 62.21485,8.94531 15.7011,-0.005 19.83587,-0.33873 27.33007,-2.20508 19.44376,-4.84227 32.21568,-11.81831 43.5879,-23.80859 l 7.6914,-8.11133 5.08203,7.11133 c 11.32064,15.83977 15.20785,27.77924 15.98828,49.10937 0.42083,11.50168 0.15973,15.69529 -1.46289,23.5 -6.94166,33.38886 -28.59586,61.17668 -56.55664,72.57618 -16.96554,6.91678 -23.37401,7.92649 -50.16015,7.90429 -26.93136,-0.0223 -31.46364,-0.6162 -69.33399,-9.08984 -39.76815,-8.89826 -58.89911,-6.79155 -75.18164,8.2832 -6.73856,6.23872 -12.1197,15.84643 -14.0293,25.04492 -1.92745,9.28445 -0.75439,25.30499 2.51172,34.28125 3.25141,8.93583 8.14577,18.11831 14.38868,27 6.3464,9.02893 22.14254,25.18252 31.33203,32.04102 l 7.6875,5.73828 -5.05078,3.13867 c -15.2865,9.50261 -33.61024,25.86967 -44.39454,39.65235 -26.69635,34.11881 -36.86758,76.06365 -29.36132,121.08203 0.65587,3.93354 1.52008,7.68118 1.91992,8.32812 0.50705,0.82044 5.00936,-0.96987 14.88281,-5.91601 30.27434,-15.16605 57.88547,-23.91362 90.62891,-28.71094 18.49938,-2.71038 56.29694,-2.45241 75.5,0.51367 37.48265,5.78953 71.32119,17.36575 96.5,33.01563 6.05,3.76038 11.12633,6.73721 11.28125,6.61328 0.4777,-0.38216 -2.71466,-37.60474 -3.81641,-44.4961 -2.60879,-16.31779 -11.28537,-37.65584 -20.66602,-50.82422 -13.27606,-18.63673 -33.31929,-34.74005 -60.11523,-48.30078 -10.61888,-5.37393 -21.93208,-10.02284 -66.43359,-27.30078 -8.1125,-3.14972 -14.75,-5.93318 -14.75,-6.18554 0,-1.72931 29.99758,-11.9213 61.3164,-20.83204 34.13452,-9.71196 47.50978,-14.34305 62.4336,-21.61328 l 12.25,-5.96679 v -6.62305 c 0,-8.16535 1.46789,-13.29142 5.02539,-17.55274 2.60779,-3.12371 2.85105,-3.20543 5.43554,-1.82226 3.73087,1.99671 7.20794,8.33432 9.34766,17.03906 0.99149,4.03354 2.45145,7.66613 3.24609,8.07227 0.79463,0.40613 4.57755,1.70389 8.4043,2.88476 17.32684,5.34674 32.41373,20.62094 43.22656,43.75977 3.30187,7.06575 4.13958,9.77186 3.32618,10.75195 -2.298,2.76892 -15.0944,6.4632 -27.72461,8.00391 -23.57312,2.8756 -37.17408,8.22768 -46.3125,18.22656 -2.73639,2.99404 -4.97271,5.9701 -4.97071,6.61328 0.002,0.64317 3.84524,3.31771 8.54297,5.94336 l 8.54297,4.77344 2.58008,-3.06641 c 5.32325,-6.32632 13.931,-9.36556 33.98242,-12 21.57168,-2.83417 35.06886,-8.09581 46.7832,-18.23437 l 3.93555,-3.4043 -3.23047,-9.25195 c -7.26479,-20.80424 -16.76105,-37.34917 -28.69336,-49.99805 -7.30184,-7.74033 -20.33384,-17.03328 -27.73242,-19.77539 -4.1991,-1.55629 -4.75907,-2.17309 -6.63086,-7.30664 -5.18137,-14.2104 -15.51201,-23.34364 -28.84375,-25.5 -3.52611,-0.57033 -4.9895,-0.25729 -8.5,1.82031 -9.62577,5.69679 -16.91958,16.37304 -19.09961,27.95313 l -1.14062,6.05273 -7,3.17969 c -9.28517,4.21595 -26.93796,9.9561 -55.17969,17.9414 -27.50967,7.77835 -48.11365,14.76403 -65.61328,22.25 -7.03635,3.01 -13.48974,5.20588 -14.3418,4.87891 -4.11579,-1.57937 -17.79264,-11.97399 -25.76953,-19.58594 -18.93025,-18.06418 -30.54618,-38.73718 -30.58398,-54.43359 -0.007,-2.71391 0.75083,-7.66391 1.68359,-11 2.32001,-8.29772 9.23997,-15.33074 17.80469,-18.09375 7.84441,-2.53063 20.8326,-2.39908 33.5,0.33789 55.6714,12.0286 59.86507,12.63681 87,12.63281 16.66163,-0.002 23.51832,-0.40558 30.46484,-1.79492 19.56923,-3.91393 36.49756,-10.98277 49.64648,-20.73047 9.4943,-7.03841 22.45242,-21.12677 28.74024,-31.24804 20.40238,-32.8409 25.36472,-72.50749 13.32422,-106.49805 -5.54134,-15.64328 -14.87841,-29.37632 -30.90821,-45.46094 -7.63372,-7.65984 -9.89365,-9.83129 -10.92382,-9.52344 z m 31.58984,289.88477 c -3.83402,-0.14609 -7.73228,1.54824 -9.92969,5.15234 -3.52548,5.78232 -1.80865,13.19061 3.75782,16.21094 10.19562,5.53208 21.0549,-5.15354 15.7207,-15.46875 -1.94537,-3.76195 -5.71481,-5.74845 -9.54883,-5.89453 z m -194.8125,39.77344 15.18945,6.5332 c 8.35446,3.59366 25.76446,10.54563 38.68946,15.44922 47.96022,18.19557 66.23779,28.39094 85.5,47.6914 11.59112,11.61417 17.82671,21.29479 22.94922,35.62696 3.55412,9.94398 6.32631,21.41197 5.40039,22.33789 -0.29642,0.29642 -6.12039,-1.6915 -12.94336,-4.41602 -37.23659,-14.8691 -76.52086,-21.85751 -116.40625,-20.71093 -37.95424,1.09106 -68.70012,7.41567 -103.16602,21.22265 -7.60815,3.04782 -14.45944,5.81225 -15.22461,6.14258 -1.16146,0.50141 -1.30446,-1.44906 -0.86328,-11.81055 1.06211,-24.94431 8.06018,-46.46226 21.92578,-67.41211 10.58456,-15.99247 32.80684,-35.65144 54.13867,-47.89453 z m 362.4668,71.19922 c -0.38216,-0.12402 0.75769,0.26364 1.14258,0.3789 0.25943,0.0777 0.52078,0.14855 0.78125,0.22266 -0.63987,-0.20538 -1.28495,-0.39423 -1.92383,-0.60156 z" />
  </g>
</svg>
