<?xml version="1.0" encoding="UTF-8" standalone="no"?>
<svg
   fill="none"
   height="32"
   viewBox="0 0 32 32"
   width="32"
   version="1.1"
   id="svg2"
   xmlns="http://www.w3.org/2000/svg"
   xmlns:svg="http://www.w3.org/2000/svg">
  <defs
     id="defs2" />
  <path
     clip-rule="evenodd"
     d="m 13.525006,1.9499588 c 0.1842,-0.1008184 0.4335,-0.139219 0.7218,-0.139219 0.2893,0 0.54,0.040228 0.7252,0.146057 0.2025,0.115752 0.3126,0.302966 0.3126,0.536545 v 0.00783 l -0.1582,4.219409 c -7e-4,0.09189 -0.0233,0.18178 -0.074,0.2624 -0.0511,0.08115 -0.1232,0.14118 -0.2048,0.18438 -0.1569,0.08312 -0.3656,0.1131 -0.6008,0.1131 -0.2351,0 -0.4438,-0.02998 -0.6007,-0.1131 -0.0816,-0.0432 -0.1537,-0.10323 -0.2048,-0.18438 -0.0507,-0.08061 -0.0733,-0.17049 -0.074,-0.26236 -0.0397,-1.05052 -0.0719,-1.86492 -0.0983,-2.44199 l -2e-4,-0.00488 c -0.0133,-0.59187 -0.0264,-1.01047 -0.0395,-1.25698 -0.0131,-0.24732 -0.0202,-0.405682 -0.0202,-0.464712 v -0.078605 c 0,-0.108526 0.0252,-0.213363 0.0824,-0.307147 0.0569,-0.093328 0.1384,-0.164226 0.2335,-0.216348 z m 3.3545,0 c 0.1841,-0.1008184 0.4334,-0.139219 0.7218,-0.139219 0.2892,0 0.54,0.040227 0.7251,0.146057 0.2026,0.115752 0.3126,0.302966 0.3126,0.536545 v 0.00783 l -0.1581,4.219409 c -7e-4,0.09189 -0.0233,0.18178 -0.074,0.2624 -0.0511,0.08115 -0.1233,0.14118 -0.2049,0.18438 -0.1569,0.08312 -0.3656,0.1131 -0.6007,0.1131 -0.2351,0 -0.4438,-0.02998 -0.6007,-0.1131 -0.0816,-0.0432 -0.1538,-0.10323 -0.2049,-0.18438 -0.0507,-0.0806 -0.0733,-0.17046 -0.074,-0.26233 -0.0397,-1.05053 -0.0718,-1.86495 -0.0983,-2.44202 l -2e-4,-0.00488 c -0.0132,-0.59187 -0.0264,-1.01047 -0.0395,-1.25698 -0.0131,-0.24732 -0.0201,-0.405682 -0.0201,-0.464712 v -0.078605 c 0,-0.108526 0.0252,-0.213363 0.0823,-0.307147 0.0569,-0.093328 0.1384,-0.164226 0.2336,-0.216348 z m 2.782,6.572372 c 0.1993,-0.17952 0.446,-0.26426 0.7264,-0.26426 h 6.2676 c 0.8048,0 1.4512,0.21511 1.9099,0.67174 0.4604,0.45821 0.6725,1.1155602 0.6725,1.9333802 v 5.33191 c 0,0.6215 0.1269,1.0325 0.3354,1.2733 0.2008,0.2308 0.5853,0.3829 1.2209,0.3976 l 0.0106,2e-4 c 0.2532,0.0188 0.4698,0.1181 0.6335,0.3041 0.1659,0.1861 0.2401,0.4195 0.2401,0.6794 0,0.2501 -0.0766,0.4758 -0.2335,0.6697 -0.1638,0.2059 -0.39,0.3133 -0.6529,0.314 -0.6343,0.015 -1.0176,0.1671 -1.2193,0.3982 -0.2091,0.2407 -0.3348,0.656 -0.3348,1.2963 v 5.3319 c 0,0.5417 -0.0941,1.0131 -0.293,1.4109 -0.2004,0.4009 -0.4973,0.7026 -0.8898,0.9041 l -10e-4,5e-4 c -0.39,0.1976 -0.8591,0.2915 -1.3986,0.2915 h -6.0585 v 0.0057 h -0.2091 c -0.285,0 -0.5318,-0.0924 -0.7308,-0.2806 -0.1953,-0.1859 -0.3013,-0.416 -0.3013,-0.6795 0,-0.2516 0.0843,-0.4793 0.2515,-0.668 0.177,-0.1998 0.4129,-0.2939 0.6859,-0.2939 h 5.8196 c 0.2964,0 0.4839,-0.0751 0.6029,-0.1961 l 0.0012,-0.0012 c 0.1178,-0.1178 0.1973,-0.3197 0.1973,-0.6525 v -5.3802 c 0,-0.4986 0.1008,-0.9565 0.3034,-1.3711 0.2014,-0.4129 0.4744,-0.7426 0.8196,-0.9856 0.057,-0.0399 0.1164,-0.077 0.1767,-0.1103 -0.0603,-0.0334 -0.119,-0.07 -0.1761,-0.1099 -0.346,-0.2414 -0.619,-0.5726 -0.8203,-0.9863 -0.2026,-0.4145 -0.3033,-0.8724 -0.3033,-1.3709 v -5.35653 c 0,-0.33001 -0.0791,-0.53276 -0.1978,-0.65292 -0.121,-0.1207 -0.3108,-0.19681 -0.6036,-0.19681 h -5.8196 c -0.2724,0 -0.5072,-0.09597 -0.6849,-0.2937702 -0.1683,-0.18757 -0.2525,-0.41504 -0.2525,-0.66916 0,-0.27544 0.101,-0.5122 0.3057,-0.69488 z m 0,0 -9e-4,8.4e-4 0.1401,0.15517 z m -16.54887,0.4131 c 0.45714,-0.45714 1.10578,-0.67208 1.9103,-0.67208 h 6.26757 c 0.2818,0 0.527,0.08652 0.7263,0.26421 l 10e-4,8.8e-4 c 0.2013,0.18181 0.3048,0.41962 0.3048,0.69405 0,0.25488 -0.0845,0.47961 -0.2515,0.66806 -0.1766,0.1992602 -0.4122,0.2948702 -0.6859,0.2948702 h -5.81961 c -0.29522,0 -0.48387,0.0764 -0.60371,0.1969 -0.11775,0.11775 -0.19771,0.32005 -0.19771,0.65283 v 5.35655 c 0,0.4987 -0.10076,0.9566 -0.30347,1.3713 -0.20137,0.4128 -0.4743,0.7425 -0.81944,0.9854 -0.0571,0.0399 -0.11648,0.077 -0.17674,0.1103 0.06026,0.0334 0.11895,0.07 0.17604,0.1099 0.34602,0.2414 0.61907,0.5726 0.82032,0.9863 0.2027,0.4146 0.30329,0.8722 0.30329,1.3709 v 5.3802 c 0,0.3324 0.07938,0.5339 0.19771,0.6528 0.12018,0.1215 0.30942,0.1969 0.60371,0.1969 h 5.81961 c 0.2724,0 0.5068,0.0959 0.6845,0.2924 0.1707,0.1899 0.2529,0.4171 0.2529,0.6696 0,0.2651 -0.1044,0.4931 -0.3012,0.6794 -0.1997,0.1901 -0.4476,0.2807 -0.7309,0.2807 h -6.47664 v -0.0106 c -0.45242,-0.0216 -0.85083,-0.115 -1.18952,-0.2866 -0.39354,-0.2 -0.69266,-0.5061 -0.89106,-0.905 -0.19666,-0.3954 -0.29273,-0.8693 -0.29273,-1.4105 v -5.3319 c 0,-0.6374 -0.1272,-1.0547 -0.33545,-1.297 -0.20067,-0.2305 -0.58449,-0.3825 -1.21864,-0.3975 -0.26492,-7e-4 -0.48904,-0.1057 -0.6535,-0.3147 C 0.076506,19.329401 0,19.102201 0,18.855001 c 0,-0.26 0.07424,-0.4934 0.240196,-0.6796 0.16464,-0.1857 0.38289,-0.2848 0.6332,-0.3036 l 0.01054,-8e-4 c 0.63638,-0.0156 1.02081,-0.1668 1.22151,-0.3977 0.20989,-0.2414 0.33511,-0.6509 0.33511,-1.2729 v -5.33193 c 0,-0.81831 0.21422,-1.4751802 0.67208,-1.9330402 z m 18.62197,7.6170702 c -1.2566,0 -2.2755,1.0189 -2.2755,2.2755 0,1.2567 1.0189,2.2756 2.2755,2.2756 1.2567,0 2.2756,-1.0189 2.2756,-2.2756 0,-1.2566 -1.0189,-2.2755 -2.2756,-2.2755 z m -13.58617,2.2755 c 0,-1.2566 1.01888,-2.2755 2.27557,-2.2755 1.2566,0 2.2755,1.0189 2.2755,2.2755 0,1.2567 -1.0189,2.2756 -2.2755,2.2756 -1.25669,0 -2.27557,-1.0189 -2.27557,-2.2756 z"
     fill="currentColor"
     fill-rule="evenodd"
     id="path2" />
</svg>
