<?xml version="1.0" encoding="utf-8"?>
<!-- Generator: Adobe Illustrator 28.0.0, SVG Export Plug-In . SVG Version: 6.00 Build 0)  -->
<svg version="1.1" xmlns="http://www.w3.org/2000/svg" xmlns:xlink="http://www.w3.org/1999/xlink" x="0px" y="0px"
	 viewBox="0 0 400 400" style="enable-background:new 0 0 400 400;" xml:space="preserve">
<style type="text/css">
	.st0{fill-rule:evenodd;clip-rule:evenodd;fill:#4F7EF3;}
	.st1{display:none;}
	.st2{display:inline;}
</style>
<g id="Layer_1">
	<g id="path8" transform="matrix(1.99972,0,0,1.99972,-1933.739,-16055.9)">
		<path id="path5" class="st0" d="M1067.01,8040.9L1067.01,8040.9c-6.08,0-11.08,5-11.08,11.08l0,0c0.02,4.05,2.24,7.78,5.79,9.71
			v25.91h-37.82c-14.08,0-26.4,7.55-33.16,18.77c-0.49-0.08-0.98-0.15-1.48-0.18c-10.29,0-18.76,8.47-18.76,18.76l0,0
			c0,10.29,8.47,18.76,18.76,18.76c0.12-0.01,0.24-0.02,0.36-0.04c6.46,12.3,19.4,20.7,34.28,20.7h86.22
			c14.88,0,27.83-8.41,34.28-20.71c0.12,0.02,0.24,0.03,0.36,0.05c10.29,0,18.76-8.48,18.76-18.76l0,0
			c0-10.29-8.47-18.77-18.76-18.77c-0.5,0.05-0.99,0.11-1.49,0.19c-6.76-11.22-19.08-18.77-33.15-18.77h-37.82v-25.92
			c3.55-1.93,5.78-5.66,5.79-9.71C1078.1,8045.9,1073.09,8040.9,1067.01,8040.9L1067.01,8040.9z M1023.91,8099.75h16.24
			c-0.02,0.23-0.04,0.46-0.04,0.7c0,5.49,4.42,9.9,9.91,9.9h34c5.48,0,9.9-4.41,9.9-9.9c0-0.24-0.02-0.47-0.03-0.7h16.24
			c14.81,0,26.49,11.63,26.49,26.24c0,14.62-11.68,26.24-26.49,26.24h-86.22c-14.81,0-26.5-11.62-26.5-26.24
			C997.41,8111.38,1009.1,8099.75,1023.91,8099.75L1023.91,8099.75z M1012.86,8113.84c-1.81-0.14-3.4,1.52-2.99,3.45l3.4,16.05
			c0.62,2.95,3.22,5.06,6.24,5.06h9.76c3.12,0,5.92-1.9,7.07-4.8l2.02-5.06c1.05-2.63-0.28-5.6-2.95-6.58l-21.75-7.96
			C1013.39,8113.91,1013.13,8113.86,1012.86,8113.84L1012.86,8113.84z M1122.14,8113.84c-0.27,0.02-0.52,0.07-0.79,0.17l-21.75,7.96
			c-2.66,0.97-3.99,3.95-2.95,6.58l2.02,5.06c1.15,2.9,3.95,4.8,7.07,4.8h9.76c3.01,0,5.61-2.11,6.24-5.06l3.4-16.05
			C1125.54,8115.36,1123.95,8113.7,1122.14,8113.84L1122.14,8113.84z M1067.5,8119.35c-2.19,0-4.29,0.44-6.19,1.25
			c-1.9,0.81-3.61,1.97-5.05,3.41c-1.43,1.43-2.6,3.14-3.4,5.05l6.71,2.84c0.43-1.03,1.06-1.96,1.85-2.74
			c0.78-0.78,1.71-1.41,2.74-1.85c1.02-0.43,2.15-0.67,3.34-0.67s2.32,0.24,3.35,0.67c1.02,0.43,1.95,1.07,2.73,1.85
			c0.78,0.78,1.41,1.71,1.85,2.74l6.71-2.84c-0.81-1.91-1.97-3.62-3.4-5.05c-1.44-1.44-3.15-2.6-5.05-3.41
			C1071.78,8119.79,1069.69,8119.35,1067.5,8119.35L1067.5,8119.35z M1021.26,8173.66c-0.44,2.54-0.69,5.15-0.69,7.81v12.82
			c-9.39,3.43-16.1,12.42-16.1,22.99h48.99c0-10.69-6.87-19.76-16.42-23.1v-12.7c0-2.67,0.36-5.26,1-7.71h-14.14
			C1023.02,8173.76,1022.14,8173.71,1021.26,8173.66L1021.26,8173.66z M1112.76,8173.66c-0.87,0.05-1.74,0.1-2.64,0.1h-14.14
			c0.64,2.45,0.99,5.04,0.99,7.71v12.7c-9.55,3.34-16.41,12.42-16.41,23.11h48.99c0-10.57-6.71-19.55-16.1-22.99v-12.82
			C1113.46,8178.81,1113.2,8176.2,1112.76,8173.66L1112.76,8173.66z"/>
	</g>
</g>
<g id="Layer_4" class="st1">
	<g id="path127" transform="matrix(1.99972,0,0,1.99972,-1565.869,-16055.9)" class="st2">
		<path id="path14" class="st0" d="M883.06,8040.9c-6.08,0-11.08,5-11.08,11.08c0.01,4.05,2.23,7.78,5.79,9.71v25.91h-37.82
			c-14.07,0-26.39,7.55-33.16,18.77c-0.49-0.08-0.98-0.15-1.48-0.18c-10.29,0-18.76,8.47-18.76,18.76l0,0
			c0,10.29,8.47,18.76,18.76,18.76c0.12-0.01,0.24-0.02,0.36-0.04c6.46,12.3,19.41,20.7,34.28,20.7h86.22
			c14.88,0,27.83-8.41,34.29-20.71c0.12,0.02,0.24,0.03,0.35,0.05c10.29,0,18.76-8.48,18.76-18.76l0,0
			c0-10.29-8.47-18.77-18.76-18.77c-0.5,0.05-0.99,0.11-1.48,0.19c-6.76-11.22-19.08-18.77-33.16-18.77h-37.82v-25.92
			c3.55-1.93,5.78-5.66,5.79-9.71C894.15,8045.9,889.14,8040.9,883.06,8040.9L883.06,8040.9z M839.95,8099.75h16.24
			c-0.01,0.23-0.03,0.46-0.03,0.7c0,5.49,4.42,9.9,9.9,9.9h34c5.49,0,9.91-4.41,9.91-9.9c0-0.24-0.02-0.47-0.04-0.7h16.24
			c14.81,0,26.5,11.63,26.5,26.24c0,14.62-11.69,26.24-26.5,26.24h-86.22c-14.81,0-26.5-11.62-26.5-26.24
			C813.45,8111.38,825.14,8099.75,839.95,8099.75L839.95,8099.75z M838.16,8112.98c-7.19,0-13.01,5.82-13.01,13.01h26.02
			C851.17,8118.8,845.34,8112.98,838.16,8112.98L838.16,8112.98z M927.97,8112.98c-7.19,0-13.01,5.82-13.01,13.01h26.02
			C940.98,8118.8,935.15,8112.98,927.97,8112.98L927.97,8112.98z M865.52,8126.13c0,9.68,7.85,17.53,17.54,17.53
			c9.68,0,17.53-7.85,17.53-17.53H865.52z M837.3,8173.66c-0.43,2.54-0.69,5.15-0.69,7.81v12.82c-9.39,3.43-16.1,12.42-16.1,22.99
			h48.99c0-10.69-6.86-19.76-16.41-23.1v-12.7c0-2.67,0.35-5.26,0.99-7.71h-14.14C839.06,8173.76,838.19,8173.71,837.3,8173.66
			L837.3,8173.66z M928.81,8173.66c-0.87,0.05-1.75,0.1-2.64,0.1h-14.14c0.64,2.45,1,5.04,1,7.71v12.7
			c-9.56,3.34-16.42,12.42-16.42,23.11h48.99c0-10.57-6.71-19.55-16.1-22.99v-12.82C929.5,8178.81,929.25,8176.2,928.81,8173.66
			L928.81,8173.66z"/>
	</g>
</g>
<g id="Layer_2" class="st1">
	<g class="st2">
		<path id="path10" class="st0" d="M200,23.65L200,23.65c-12.16,0-22.16,10.01-22.16,22.16l0,0c0.02,8.1,4.48,15.55,11.59,19.41
			v51.82h-75.64c-28.13,0-52.78,15.1-66.29,37.53c-0.99-0.16-1.98-0.29-2.97-0.39C23.95,154.19,7,171.14,7,191.73l0,0
			c0,20.57,16.95,37.52,37.52,37.52c0.24-0.02,0.48-0.05,0.72-0.07c12.91,24.59,38.82,41.39,68.55,41.39h172.43
			c29.73,0,55.64-16.82,68.55-41.41c0.24,0.04,0.48,0.05,0.72,0.09c20.59,0,37.52-16.95,37.52-37.52l0,0
			c0-20.59-16.93-37.53-37.52-37.53c-0.99,0.09-1.98,0.22-2.97,0.39c-13.52-22.44-38.16-37.53-66.29-37.53h-75.64V65.22
			c7.11-3.86,11.57-11.31,11.59-19.41C222.16,33.65,212.16,23.65,200,23.65L200,23.65z M113.78,141.34h32.48
			c-0.04,0.46-0.07,0.92-0.07,1.4c0,10.98,8.83,19.8,19.8,19.8h68.02c10.96,0,19.8-8.81,19.8-19.8c0-0.48-0.04-0.94-0.07-1.4h32.48
			c29.6,0,52.98,23.25,52.98,52.46c0,29.23-23.38,52.46-52.98,52.46H113.78c-29.6,0-52.98-23.23-52.98-52.46
			C60.8,164.59,84.18,141.34,113.78,141.34L113.78,141.34z M138.9,183.98H86.86c0,14.38,11.64,26.02,26.02,26.02
			C127.24,210,138.9,198.34,138.9,183.98L138.9,183.98z M159.78,183.98v16.95h80.43v-16.95H159.78z M261.1,183.98
			c0,14.36,11.66,26.02,26.02,26.02c14.38,0,26.02-11.66,26.02-26.02H261.1z M108.51,289.13c-0.88,5.09-1.4,10.3-1.4,15.63v25.64
			c-18.75,6.85-32.17,24.83-32.17,45.96h97.95c0-21.37-13.72-39.52-32.82-46.2v-25.4c0-5.34,0.7-10.52,2-15.43h-28.3
			C112.02,289.33,110.26,289.24,108.51,289.13L108.51,289.13z M291.49,289.13c-1.74,0.11-3.51,0.2-5.27,0.2h-28.3
			c1.29,4.9,2,10.08,2,15.43v25.4c-19.1,6.68-32.83,24.83-32.83,46.2h97.97c0-21.14-13.42-39.1-32.17-45.96v-25.64
			C292.88,299.43,292.37,294.21,291.49,289.13L291.49,289.13z"/>
	</g>
</g>
<g id="Layer_3" class="st1">
	<g class="st2">
		<path id="path18" class="st0" d="M200,23.65c-12.16,0-22.16,10.01-22.16,22.16c0.04,8.1,4.48,15.55,11.59,19.41v51.82H113.8
			c-28.15,0-52.79,15.1-66.31,37.53c-0.97-0.16-1.97-0.29-2.96-0.37C23.95,154.21,7,171.14,7,191.73l0,0
			c0,20.59,16.95,37.52,37.53,37.52c0.24-0.02,0.48-0.04,0.72-0.07c12.91,24.59,38.8,41.39,68.55,41.39h172.41
			c29.75,0,55.64-16.82,68.55-41.41c0.24,0.04,0.48,0.05,0.72,0.09c20.59,0,37.52-16.93,37.52-37.52l0,0
			c0-20.59-16.93-37.53-37.52-37.53c-0.99,0.09-1.98,0.22-2.98,0.39c-13.52-22.44-38.16-37.53-66.29-37.53H210.6V65.22
			c7.11-3.86,11.55-11.31,11.57-19.41C222.16,33.65,212.16,23.65,200,23.65L200,23.65z M113.8,141.34h32.47
			c-0.04,0.46-0.07,0.92-0.07,1.4c0,10.98,8.83,19.8,19.81,19.8h68c10.96,0,19.8-8.81,19.8-19.8c0-0.48-0.04-0.94-0.06-1.4h32.47
			c29.62,0,53,23.25,53,52.46c0,29.23-23.38,52.46-53,52.46H113.8c-29.62,0-53-23.23-53-52.46
			C60.81,164.59,84.18,141.34,113.8,141.34L113.8,141.34z M110.2,167.78L110.2,167.78c-14.27,0-26.02,11.75-26.02,26.02l0,0
			c0,14.27,11.75,26.02,26.02,26.02l0,0c14.29,0,26.02-11.75,26.02-26.02l0,0C136.22,179.53,124.49,167.78,110.2,167.78z
			 M289.8,167.78c-14.27,0-26.02,11.75-26.02,26.02l0,0c0,14.27,11.75,26.02,26.02,26.02l0,0c14.29,0,26.02-11.75,26.02-26.02l0,0
			C315.82,179.53,304.08,167.78,289.8,167.78z M164.93,177.72v23.36c0,19.36,15.72,35.06,35.07,35.06
			c19.37,0,35.07-15.7,35.07-35.06v-23.36H164.93z M108.51,289.13c-0.88,5.09-1.38,10.3-1.38,15.63v25.64
			c-18.77,6.87-32.19,24.83-32.19,45.96h97.97c0-21.37-13.74-39.52-32.83-46.2v-25.4c0-5.34,0.72-10.52,2-15.43H113.8
			C112.02,289.33,110.26,289.24,108.51,289.13L108.51,289.13z M291.49,289.13c-1.74,0.11-3.49,0.2-5.27,0.2h-28.28
			c1.29,4.9,1.98,10.08,1.98,15.43v25.4c-19.1,6.68-32.82,24.83-32.82,46.2h97.97c0-21.14-13.42-39.1-32.19-45.96v-25.64
			C292.88,299.43,292.37,294.21,291.49,289.13L291.49,289.13z"/>
	</g>
</g>
</svg>
