<?xml version="1.0" encoding="UTF-8"?>
<svg version="1.1" xmlns="http://www.w3.org/2000/svg" width="3141" height="649">
<path d="M0 0 C9.79205761 7.19813507 15.65481758 15.60646092 18.546875 27.421875 C19.73766373 40.88055691 17.47199566 50.69638138 9.81640625 61.9375 C7.546875 64.421875 7.546875 64.421875 5.39508057 65.44880676 C2.27948753 67.12206469 0.6252782 68.52895879 -1.453125 71.421875 C-3.25752306 78.24534787 -2.63907132 85.67530443 -2.55078125 92.66796875 C-2.55643676 94.76548147 -2.5660508 96.86298694 -2.57945251 98.96046448 C-2.60403787 104.46665934 -2.57500022 109.97130493 -2.53466797 115.47735596 C-2.50300041 121.10149428 -2.52221703 126.7254357 -2.53710938 132.34960938 C-2.55882305 143.37409769 -2.52387016 154.39761933 -2.453125 165.421875 C-1.72334788 165.42003141 -0.99357077 165.41818783 -0.24167919 165.41628838 C17.59867 165.37192436 35.43900804 165.33892911 53.27940083 165.31825066 C61.90723476 165.30798234 70.53503166 165.29400811 79.1628418 165.27099609 C86.69169985 165.25092494 94.22053103 165.23812637 101.7494151 165.23369801 C105.72784231 165.23111361 109.70619275 165.2251345 113.68459511 165.21041489 C155.35931937 165.06226517 155.35931937 165.06226517 171.234375 169.671875 C172.01288818 169.88948486 172.79140137 170.10709473 173.59350586 170.33129883 C193.65249334 176.08664597 211.52672139 184.94150184 227.546875 198.421875 C228.41570313 199.15019531 229.28453125 199.87851563 230.1796875 200.62890625 C240.76609053 209.8380813 252.61775209 221.04956548 257.546875 234.421875 C258.63484375 234.38707031 259.7228125 234.35226563 260.84375 234.31640625 C280.4505695 233.86840398 297.08812719 239.599226 311.86328125 252.73046875 C324.58938425 265.49362008 332.84731506 282.13833698 332.96459961 300.31298828 C332.95050049 301.3182959 332.93640137 302.32360352 332.921875 303.359375 C332.91099854 304.41624512 332.90012207 305.47311523 332.88891602 306.56201172 C332.48161572 326.45978394 324.191759 342.33751017 309.921875 356.046875 C299.68111144 364.89401783 286.69948477 372.09507426 272.90625 372.5390625 C266.46021464 372.62581062 266.46021464 372.62581062 261.14111328 375.85986328 C258.27175794 379.7716476 256.07012463 384.06659707 253.76660156 388.32519531 C250.50210823 393.93677833 245.9390276 398.67916815 241.546875 403.421875 C241.04816895 403.96440918 240.54946289 404.50694336 240.03564453 405.06591797 C215.36806407 431.60166483 181.58630234 446.80033911 145.546875 449.421875 C140.9431142 449.56299974 136.34218589 449.56547606 131.73651123 449.56231689 C130.35762616 449.56490565 128.97874183 449.56792021 127.59985852 449.5713203 C123.83399291 449.5793341 120.06814641 449.58117671 116.30227327 449.58191776 C112.2310921 449.58377825 108.15992062 449.59133065 104.08874512 449.59805298 C95.19558311 449.61159817 86.30242563 449.61765544 77.40925503 449.62206364 C71.84670098 449.62483329 66.28414865 449.62907201 60.72159576 449.63356781 C45.29391464 449.64575694 29.86623488 449.65605602 14.43854904 449.6594429 C13.45231724 449.65966247 12.46608543 449.65988203 11.44996782 449.66010825 C10.4614864 449.66032653 9.47300498 449.66054481 8.45456958 449.6607697 C6.45180941 449.66121315 4.44904923 449.66165972 2.44628906 449.66210938 C1.45286834 449.6623308 0.45944763 449.66255223 -0.56407675 449.66278037 C-16.6373174 449.66672284 -32.71051256 449.68416162 -48.78373566 449.7074689 C-65.32076175 449.7312533 -81.85776508 449.74364802 -98.39480853 449.74481082 C-107.66552634 449.74572376 -116.93618492 449.75137911 -126.20688629 449.76963043 C-134.1060381 449.78512763 -142.00511237 449.79009584 -149.90427652 449.78189233 C-153.92525904 449.77801916 -157.94608588 449.77874933 -161.96704865 449.79294968 C-199.24976662 449.9167472 -234.75403797 445.61878634 -265.453125 422.421875 C-266.32324219 421.7721875 -267.19335938 421.1225 -268.08984375 420.453125 C-278.86769282 412.01965478 -289.07187416 402.28286748 -297.015625 391.109375 C-297.63074951 390.24602539 -297.63074951 390.24602539 -298.25830078 389.36523438 C-300.03104349 386.79073016 -301.50116008 384.30900729 -302.7265625 381.4296875 C-304.03825193 378.39255425 -304.94633088 376.607514 -307.453125 374.421875 C-312.03024195 372.91031809 -316.85631263 372.5610002 -321.625 372.03515625 C-337.05750439 370.29403777 -352.7101669 360.36838063 -362.453125 348.421875 C-375.71513883 330.59353351 -379.92143408 311.21924057 -377.16894531 289.14257812 C-374.12616703 272.81109793 -363.51164927 257.26208542 -350.37890625 247.3359375 C-334.98383811 237.26439759 -320.69608902 233.83827307 -302.453125 234.421875 C-302.20433594 233.71160156 -301.95554687 233.00132812 -301.69921875 232.26953125 C-290.74997622 207.24759455 -261.28165598 186.47575095 -236.7734375 176.44140625 C-210.26399356 166.1207916 -184.38854214 165.11496648 -156.24692178 165.21908712 C-152.23381005 165.23175576 -148.22069395 165.23277749 -144.20756531 165.23513794 C-136.63977754 165.24130604 -129.0720489 165.25765225 -121.50428694 165.27783692 C-112.87524016 165.30034306 -104.24619026 165.311226 -95.61712134 165.32122779 C-77.89575595 165.34202373 -60.17444526 165.37710684 -42.453125 165.421875 C-42.37524926 153.28645863 -42.34583269 141.15197886 -42.37796688 129.01632595 C-42.39137313 123.38086296 -42.38820319 117.74643279 -42.34692383 112.11108398 C-42.30768517 106.67055912 -42.3122858 101.23166203 -42.34704781 95.79112434 C-42.35263882 93.71753258 -42.34253795 91.64383618 -42.31635857 89.57040215 C-41.70878567 78.58364667 -41.70878567 78.58364667 -45.41360474 68.69094849 C-47.6879388 66.93409849 -49.90924615 65.73435079 -52.453125 64.421875 C-61.3645966 55.00856922 -63.96603209 44.18683249 -63.7265625 31.60546875 C-63.18583451 19.82455839 -57.59434248 11.02745209 -49.140625 3.171875 C-35.50495275 -7.90325246 -14.86253734 -9.56125013 0 0 Z M-253.453125 242.421875 C-271.15838802 263.37215407 -280.28579077 288.66438618 -278.05908203 316.15087891 C-275.47851692 341.52552653 -263.69432286 364.3768168 -244.40234375 381.109375 C-224.89187871 396.40764692 -203.07801102 403.74921522 -178.34373474 403.68930054 C-176.944635 403.69304437 -175.54553735 403.69764879 -174.14644295 403.70303118 C-170.32948739 403.71518633 -166.51261997 403.71500962 -162.6956495 403.71264243 C-158.56797543 403.71223235 -154.4403289 403.72329167 -150.31266785 403.73275757 C-142.23550573 403.74932806 -134.15837281 403.75486535 -126.08119511 403.75598232 C-119.510288 403.7569348 -112.93939048 403.76105505 -106.3684864 403.76738358 C-87.70989345 403.78498623 -69.05132344 403.79422413 -50.39272212 403.79272263 C-49.38809208 403.79264272 -48.38346205 403.7925628 -47.34838867 403.79248047 C-45.8395883 403.79235783 -45.8395883 403.79235783 -44.3003071 403.79223271 C-28.01101362 403.79142038 -11.72181273 403.81054718 4.56745399 403.8387572 C21.32145958 403.86754142 38.0754201 403.88129441 54.82945102 403.87956965 C64.22411985 403.8789076 73.61869164 403.88431848 83.01333809 403.90592575 C91.01434322 403.92421072 99.01520733 403.9284253 107.01622439 403.9149069 C111.09144073 403.90841357 115.16638713 403.90812684 119.24157715 403.9256134 C152.7600744 404.06038963 181.25559477 398.65463075 206.34375 374.7578125 C223.89122544 356.28391755 233.75298216 331.95339944 233.546875 306.421875 C232.47716552 279.92833169 222.37062685 256.31547379 203.546875 237.421875 C177.28264782 213.30357046 146.12647333 210.75919649 112.18780518 211.1472168 C108.15784236 211.18877871 104.12777343 211.20653929 100.09765625 211.2265625 C92.24711369 211.26894474 84.39708413 211.33684215 76.546875 211.421875 C76.48647034 212.17546799 76.42606567 212.92906097 76.36383057 213.70549011 C76.23835846 215.18968193 76.23835846 215.18968193 76.11035156 216.70385742 C76.0293219 217.68432541 75.94829224 218.6647934 75.86480713 219.67497253 C74.85212584 228.42443974 70.39258933 236.52025611 63.58203125 242.00390625 C54.02435156 248.9076081 44.49267052 249.86803913 32.93408203 249.82592773 C31.59248287 249.83164283 30.25088856 249.83861145 28.90930176 249.84672546 C25.29342988 249.86454779 21.67780213 249.86350916 18.06189966 249.85778308 C15.03041108 249.85467488 11.99896829 249.86080178 8.96748626 249.86682183 C1.80885121 249.88082996 -5.34966442 249.87933721 -12.50830078 249.86791992 C-19.86449048 249.85644596 -27.22031527 249.87051051 -34.5764569 249.8973164 C-40.91907004 249.91955353 -47.2615693 249.92609272 -53.6042186 249.92023998 C-57.38056124 249.91688783 -61.15667017 249.91916809 -64.93297958 249.93649101 C-68.48729416 249.95208648 -72.04107306 249.94786736 -75.59536743 249.92918587 C-77.50142276 249.92380996 -79.4075029 249.93791824 -81.31350708 249.95288086 C-92.20440362 249.86080487 -102.00390628 247.63401058 -110.48046875 240.48046875 C-116.91528039 233.76532868 -120.20781535 225.88662554 -120.99609375 216.73046875 C-121.08270264 215.73716553 -121.16931152 214.7438623 -121.25854492 213.72045898 C-121.32275635 212.96192627 -121.38696777 212.20339355 -121.453125 211.421875 C-130.10413826 211.32816791 -138.7549308 211.25760987 -147.40633011 211.21462631 C-151.42585745 211.19397054 -155.44503142 211.16607006 -159.46435547 211.12011719 C-195.47266238 210.71960446 -227.41296447 214.99399432 -253.453125 242.421875 Z " fill="#4E7DF3" transform="translate(377.453125,5.578125)"/>
<path d="M0 0 C1.66118555 -0.00239515 3.32237003 -0.00566373 4.98355237 -0.0097166 C9.52611111 -0.01828749 14.0685866 -0.01453071 18.6111465 -0.00866088 C23.56167573 -0.00447409 28.51219021 -0.01190183 33.4627158 -0.01781338 C42.1319579 -0.02656275 50.80117638 -0.02789199 59.47042179 -0.02431011 C72.36215586 -0.01899771 85.25386709 -0.02510381 98.14559868 -0.03339304 C121.84101179 -0.04821023 145.53641528 -0.05048344 169.23183212 -0.04807267 C172.58660076 -0.0477342 175.9413694 -0.04741211 179.29613805 -0.04710698 C180.29571466 -0.04701542 180.29571466 -0.04701542 181.31548473 -0.046922 C196.09793127 -0.04564891 210.88037636 -0.04825366 225.66282247 -0.05163305 C229.04040596 -0.05240379 232.41798946 -0.05314853 235.79557296 -0.05389806 C237.15118362 -0.05419976 238.50679429 -0.05450164 239.86240495 -0.05480371 C240.87034909 -0.05502822 240.87034909 -0.05502822 241.89865574 -0.05525728 C243.25787816 -0.05556081 244.61710058 -0.0558655 245.976323 -0.05617132 C284.53266467 -0.0648418 323.08900507 -0.06949008 361.6453476 -0.06522369 C362.35896963 -0.06514564 363.07259166 -0.06506758 363.8078386 -0.06498716 C371.76508843 -0.06411439 379.72233824 -0.06318513 387.67958806 -0.06223653 C388.39798073 -0.06215102 389.1163734 -0.06206551 389.85653555 -0.06197741 C395.82502906 -0.0612667 395.82502906 -0.0612667 398.57221989 -0.06093518 C444.52204004 -0.05539952 490.47184009 -0.06294227 536.42165661 -0.08170605 C548.00042148 -0.08642844 559.57918637 -0.09110903 571.15795135 -0.09554291 C572.22744391 -0.09595289 572.22744391 -0.09595289 573.31854237 -0.09637116 C595.30052371 -0.10474506 617.28250339 -0.10942236 639.26448631 -0.11025047 C639.95482373 -0.11027684 640.64516115 -0.11030321 641.35641789 -0.11033037 C656.51233156 -0.1108712 671.66824509 -0.11049859 686.82415872 -0.10929066 C692.24740617 -0.10886505 697.67065362 -0.10849992 703.09390107 -0.10816122 C704.44300738 -0.10807591 705.79211368 -0.10798698 707.14121998 -0.1078944 C727.95196712 -0.10649186 748.76270129 -0.11287695 769.57344532 -0.1238451 C792.4751144 -0.1358942 815.37675661 -0.13745934 838.27842609 -0.12505493 C851.09221865 -0.11842507 863.90594697 -0.1200604 876.7197344 -0.13364345 C885.28349358 -0.14188873 893.84720464 -0.13918932 902.41095991 -0.12766818 C907.28719532 -0.12141266 912.16330538 -0.11980873 917.03953353 -0.13153151 C921.48505857 -0.14212023 925.93035282 -0.13863285 930.37586575 -0.12442699 C931.96488212 -0.12172274 933.5539174 -0.1239184 935.14291585 -0.13193413 C963.91998016 -0.2670661 991.8961654 7.8750845 1015.10256481 25.25447559 C1015.97526012 25.90545216 1016.84795544 26.55642872 1017.74709606 27.22713184 C1034.71198267 40.51587904 1048.41086386 56.57240682 1059.10256481 75.25447559 C1059.45673473 75.86178516 1059.81090466 76.46909473 1060.175807 77.09480762 C1078.13219633 108.15001054 1085.55712059 143.03509661 1085.47756481 178.62947559 C1085.47674908 180.00927601 1085.47674908 180.00927601 1085.47591686 181.41695118 C1085.43455492 196.68910368 1084.46714812 211.30596426 1081.10256481 226.25447559 C1080.89889294 227.18485645 1080.69522106 228.11523731 1080.48537731 229.07381153 C1070.63997157 272.60326746 1045.00525294 314.49191893 1006.87990856 338.66365528 C982.31754477 353.58262146 957.35200077 358.42370673 928.83508396 358.38311005 C927.19360766 358.38445834 925.55213168 358.38624316 923.91065627 358.38842228 C919.40419755 358.39313837 914.8977591 358.39165513 910.39129939 358.38914451 C905.48685296 358.3875086 900.58241082 358.39165463 895.67796576 358.39505368 C887.08345916 358.4002045 878.48895818 358.40162544 869.89445019 358.40059757 C857.11383392 358.3990728 844.33322388 358.40323406 831.55260882 358.4084722 C807.39805816 358.41814531 783.24350961 358.42095642 759.08895724 358.42152926 C756.42563735 358.42159486 753.76231747 358.42166267 751.09899759 358.42173266 C750.43806795 358.42174967 749.77713831 358.42176667 749.0961805 358.42178419 C734.44221075 358.42219286 719.78824139 358.42438346 705.13427185 358.42688851 C699.09798658 358.42791688 693.0617013 358.42890692 687.02541602 358.42990476 C686.02494192 358.43007064 686.02494192 358.43007064 685.00425622 358.43023988 C646.78845699 358.436563 608.57265804 358.4406891 570.35685825 358.44023132 C568.92703478 358.44021554 567.49721131 358.44019981 566.06738783 358.44018411 C559.61202768 358.44011073 553.15666754 358.44002256 546.70130739 358.43993023 C543.82277017 358.43988911 540.94423295 358.43984896 538.06569574 358.43980892 C536.62493687 358.43978852 535.184178 358.4397675 533.74341913 358.43974586 C488.18979119 358.43906568 442.63617104 358.44638209 397.08254528 358.46028614 C385.60567445 358.46378726 374.12880361 358.46725676 362.65193272 358.47055054 C361.94522412 358.47075341 361.23851553 358.47095629 360.51039153 358.47116531 C338.72292768 358.47738197 316.93546446 358.48114619 295.14799976 358.48240852 C294.12167572 358.48246845 294.12167572 358.48246845 293.07461786 358.48252959 C278.05313497 358.48338293 263.03165211 358.48364403 248.0101692 358.48335921 C242.63496568 358.48326273 237.25976215 358.48321068 231.88455862 358.48318048 C230.54738312 358.48317257 229.21020763 358.48316236 227.87303213 358.48314986 C205.92468461 358.48296822 183.97634619 358.48921873 162.02800087 358.49810087 C140.64092532 358.50657687 119.25385937 358.5075677 97.86678307 358.50099155 C85.16168055 358.49729558 72.45660722 358.49912967 59.75150779 358.50893389 C51.26133466 358.5149319 42.77118268 358.51364039 34.28101052 358.50646339 C29.44593173 358.50258041 24.61090942 358.50181053 19.77583461 358.50992074 C15.36879878 358.51724806 10.961866 358.51520657 6.55483461 358.50599687 C4.97860374 358.50428923 3.40236461 358.50585865 1.8261422 358.51129808 C-33.59016912 358.62523635 -65.01045217 348.88496067 -91.89743519 325.25447559 C-93.17360706 324.16006153 -93.17360706 324.16006153 -94.47556019 323.04353809 C-110.39889617 309.12283026 -122.22358113 291.94899593 -131.89743519 273.25447559 C-132.21019398 272.6549004 -132.52295277 272.0553252 -132.84518909 271.43758106 C-140.30341759 256.93082942 -145.18780326 241.39539634 -148.70993519 225.50447559 C-148.90474476 224.63178028 -149.09955433 223.75908497 -149.30026722 222.85994434 C-152.30910841 208.459922 -153.31061239 194.05513917 -153.27243519 179.37947559 C-153.27189137 178.5820998 -153.27134754 177.78472401 -153.27078724 176.96318531 C-153.17763171 146.98685413 -147.04917072 118.64558688 -134.89743519 91.25447559 C-134.4299889 90.1997002 -134.4299889 90.1997002 -133.95309925 89.12361622 C-117.5667173 52.88283497 -88.21370368 22.58287906 -50.96530628 8.02449512 C-34.19463992 1.77955041 -17.77494364 -0.0538691 0 0 Z M-16.41686147 30.13739324 C-17.13785793 30.21384443 -17.85885438 30.29029563 -18.6016992 30.36906353 C-47.32754385 33.76009203 -71.7009658 50.9662392 -89.52634144 73.09822559 C-93.66880868 78.61241592 -97.37652273 84.32714931 -100.89743519 90.25447559 C-101.24016468 90.82472462 -101.58289417 91.39497364 -101.93600941 91.98250294 C-125.24811688 131.3195919 -129.20996222 181.15301838 -118.30759144 224.96150684 C-114.67054299 238.88541226 -109.78260315 251.61731639 -102.89743519 264.25447559 C-102.04858753 265.84195606 -102.04858753 265.84195606 -101.18259144 267.46150684 C-85.83001349 295.02389973 -62.01954827 315.17788174 -32.20993519 325.35994434 C-21.96431056 328.12674628 -12.03088143 328.54148279 -1.47657394 328.5117445 C0.1816552 328.51444101 1.83988311 328.51801061 3.49810871 328.52236897 C8.05110492 328.53180224 12.60402085 328.52883434 17.15702094 328.52381342 C22.11191455 328.52054187 27.06679118 328.52883344 32.02167934 328.53563178 C40.70478359 328.54593387 49.38786555 328.5487752 58.0709753 328.54671955 C70.98338936 328.54367012 83.89577874 328.55199229 96.808188 328.5624688 C121.21207442 328.58181561 145.61595311 328.58743853 170.01984621 328.58858292 C172.71072794 328.58871242 175.40160966 328.58884829 178.09249139 328.58898973 C179.09414697 328.58904075 179.09414697 328.58904075 180.11603802 328.58909279 C194.92169076 328.58991013 209.72734179 328.59429133 224.53299362 328.59930142 C230.63178667 328.60135818 236.73057975 328.60333826 242.82937282 328.60533392 C243.50326375 328.6055551 244.17715468 328.60577628 244.87146655 328.60600416 C283.48363517 328.61865059 322.09580268 328.62690259 360.70797348 328.62598705 C362.15264886 328.6259555 363.59732423 328.62592402 365.04199961 328.62589264 C371.5644081 328.62574587 378.08681659 328.62556953 384.60922508 328.62538487 C387.51765724 328.62530262 390.4260894 328.62522233 393.33452157 328.62514224 C394.79024356 328.62510145 396.24596556 328.62505941 397.70168756 328.62501612 C443.72603283 328.62365585 489.75034731 328.63828728 535.77468395 328.66609669 C547.36963962 328.67309894 558.96459532 328.68003796 570.55955124 328.68662548 C571.27353494 328.68703123 571.98751864 328.68743698 572.7231382 328.68785502 C594.73589702 328.70028891 616.7486533 328.7078169 638.76141548 328.71034145 C639.45273731 328.71042136 640.14405914 328.71050126 640.85633012 328.71058358 C656.03404832 328.7122903 671.21176636 328.71281247 686.38948464 328.71224283 C691.82065103 328.71204986 697.25181742 328.71194577 702.68298382 328.71188537 C704.03407785 328.71186954 705.38517189 328.71184913 706.73626592 328.71182412 C727.57951744 328.7114827 748.422744 328.72181495 769.26598835 328.73852634 C792.20618719 328.75690544 815.14634008 328.76146813 838.08654309 328.7475075 C850.92255248 328.74011706 863.75844634 328.7437792 876.59444349 328.76339218 C885.17315243 328.77539215 893.7517777 328.77280084 902.3304828 328.75845118 C907.21535617 328.75068844 912.10000598 328.74913578 916.98486359 328.76536588 C921.43830444 328.78003259 925.89133767 328.77592449 930.34476104 328.75751815 C931.93663083 328.75410594 933.52853341 328.75723152 935.12036961 328.76812056 C964.68141611 328.95661554 989.75769717 317.35991839 1011.10256481 297.25447559 C1041.23911735 267.46885817 1055.71997713 224.51334176 1056.33523083 182.72200489 C1056.471984 155.85867312 1052.20284932 129.90363677 1041.10256481 105.25447559 C1040.79061169 104.56031544 1040.47865856 103.86615528 1040.15725231 103.15095997 C1026.02213119 72.26629491 1002.15899334 46.92585067 970.20022106 34.71931934 C949.08494629 27.2517976 925.89788419 28.96411107 903.8386417 28.99754049 C898.99513718 29.00264947 894.15164539 28.99608007 889.30814272 28.99105382 C880.83301022 28.9838536 872.35790324 28.98403529 863.88276958 28.98914814 C851.27974048 28.9967305 838.67673279 28.9928366 826.07370381 28.98673153 C803.56161156 28.97621188 781.04953068 28.97710809 758.53743735 28.98288935 C738.83716106 28.98792359 719.13688893 28.9892324 699.43661213 28.98684406 C698.12904637 28.98669129 696.82148062 28.98653852 695.47429166 28.98638112 C690.16625681 28.98575843 684.85822197 28.98512163 679.55018713 28.9844616 C664.71342918 28.98263869 649.87667123 28.98148645 635.03991318 28.98088932 C634.02659124 28.98084838 634.02659124 28.98084838 632.99279815 28.98080662 C611.47701029 28.97998844 589.96122388 28.98223988 568.44543648 28.98658848 C567.39914724 28.98679923 567.39914724 28.98679923 566.33172084 28.98701423 C555.00534422 28.98930395 543.67896763 28.99174296 532.35259104 28.99419458 C487.43224953 29.00390731 442.51191994 29.00345547 397.59157848 28.99373341 C386.26963553 28.9912909 374.94769257 28.98886875 363.62574959 28.98658848 C362.92855828 28.98644758 362.23136698 28.98630669 361.51304866 28.98616152 C340.01817335 28.9818474 318.52329904 28.98002093 297.02842331 28.98088932 C296.35338897 28.98091649 295.67835464 28.98094366 294.98286472 28.98097165 C279.49810871 28.98162472 264.01335284 28.98303235 248.52859694 28.98495793 C243.23063187 28.98559935 237.9326668 28.98622504 232.63470173 28.98684406 C230.67800688 28.98708129 230.67800688 28.98708129 228.68178284 28.98732332 C208.9946231 28.98959699 189.30746798 28.9869401 169.62030888 28.98188496 C147.23293978 28.97616507 124.84558382 28.97759907 102.45821636 28.98844644 C89.93324876 28.9943152 77.4083096 28.99470784 64.88334274 28.9871541 C56.51224765 28.98266285 48.14117532 28.98547219 39.7700836 28.99416363 C35.00397954 28.99891109 30.23793189 29.00056893 25.47182965 28.99335167 C21.12630568 28.9868386 16.7808876 28.98971065 12.43537118 28.99971299 C10.88254884 29.00170849 9.3297175 29.00044552 7.7769024 28.99530111 C-0.3426039 28.97033486 -8.33953036 29.26848493 -16.41686147 30.13739324 Z " fill="#4E7DF3" transform="translate(2055.8974351882935,272.7455244064331)"/>
<path d="M0 0 C22.77 0 45.54 0 69 0 C69.33 41.91 69.66 83.82 70 127 C73.96 122.05 73.96 122.05 78 117 C98.84907749 95.85307855 127.19968684 86.43312648 156.4375 85.75 C190.34206063 86.58201376 220.73916127 98.07821809 244.59521484 122.64257812 C251.4972571 130.06009783 257.07798454 138.13632945 262 147 C262.33628418 147.60150879 262.67256836 148.20301758 263.01904297 148.82275391 C274.02133524 168.76537761 280.06557163 191.62088108 280.203125 214.42578125 C280.21018463 215.20673157 280.21724426 215.98768188 280.22451782 216.79229736 C280.45031656 249.09475163 280.45031656 249.09475163 277 263 C276.71793701 264.21550537 276.71793701 264.21550537 276.43017578 265.45556641 C268.50453572 298.9677199 249.48784477 329.1803454 220.09667969 347.72460938 C192.04505476 364.7881502 158.93570402 369.10540452 127 362 C104.32264172 356.38910723 86.78041454 343.89830223 71 327 C70.67 326.34 70.34 325.68 70 325 C69.67 336.88 69.34 348.76 69 361 C46.23 361 23.46 361 0 361 C0 241.87 0 122.74 0 0 Z M85.7265625 172.62109375 C70.70316641 191.99033814 66.52003825 216.42569154 69.4609375 240.40234375 C72.44506918 259.97181588 81.75621935 277.20924152 97 290 C113.09882307 301.78367462 131.37631313 306.24539431 151.10400391 303.73193359 C168.37356621 300.66958583 184.34930974 290.68980612 194.6328125 276.50390625 C208.95029774 255.53408461 213.41424773 230.36771309 208.8125 205.4375 C204.63875751 186.23828455 194.33947653 169.11529016 178 158 C145.87265279 139.55720597 110.01052315 144.62360648 85.7265625 172.62109375 Z " fill="#FFFFFF" transform="translate(1066,250)"/>
<path d="M0 0 C36.82894301 -0.87548993 73.08624683 11.45049013 100.171875 36.64453125 C108.03488105 44.16192142 114.66392179 51.80958295 120.33984375 61.12890625 C120.71834473 61.7434668 121.0968457 62.35802734 121.48681641 62.99121094 C130.53948084 77.82907625 136.00469767 93.10715445 139.33984375 110.12890625 C139.56671875 111.24652344 139.79359375 112.36414063 140.02734375 113.515625 C146.3415491 151.26931114 138.74954843 191.68823786 116.65234375 223.12890625 C94.97888731 253.02504044 62.71970481 271.66822171 26.40844727 277.53955078 C-11.38761996 283.05043099 -51.82917983 276.61806886 -83.09765625 253.62890625 C-113.15544309 229.93581471 -130.77749927 198.23418185 -135.4410553 160.29037476 C-135.78739132 156.87371048 -135.86119971 153.45829301 -135.8984375 150.02734375 C-135.90823135 149.27670151 -135.91802521 148.52605927 -135.92811584 147.75267029 C-136.09947203 131.21386633 -136.05834605 115.20539454 -131.66015625 99.12890625 C-131.44584961 98.34080566 -131.23154297 97.55270508 -131.01074219 96.74072266 C-121.88364203 64.45045054 -100.84752353 35.96677413 -71.66015625 19.12890625 C-48.91249413 6.59067807 -25.8005626 1.25024753 0 0 Z M-47.66015625 82.12890625 C-48.26859375 82.71414063 -48.87703125 83.299375 -49.50390625 83.90234375 C-63.86755325 98.95361215 -67.06539393 123.06797598 -66.63842773 142.96313477 C-66.0725133 157.57121923 -63.8700632 172.21534031 -56.66015625 185.12890625 C-55.88865234 186.51142578 -55.88865234 186.51142578 -55.1015625 187.921875 C-46.17221763 202.8728566 -33.22395237 212.05673902 -16.66015625 217.12890625 C2.81001181 221.77849862 21.86907469 218.10322702 38.96484375 207.94140625 C55.52740117 196.85998294 64.81597664 180.09369432 69.15234375 160.94140625 C73.49921735 137.51739943 71.51090816 110.18904974 58.15234375 89.87890625 C46.67204607 74.75606335 32.18143184 64.48763924 13.33984375 61.12890625 C-11.44942709 59.3313246 -29.97241108 64.49318386 -47.66015625 82.12890625 Z " fill="#FFFFFF" transform="translate(875.66015625,335.87109375)"/>
<path d="M0 0 C37.81919944 -1.00300529 74.33468354 12.13553828 102.07666016 37.83251953 C111.80287778 47.11126083 118.96791413 57.44171409 125.44140625 69.12109375 C125.99699219 70.10722656 126.55257813 71.09335937 127.125 72.109375 C136.32591493 89.38797628 141.46780097 109.68683129 141.6796875 129.22265625 C141.68943604 129.97343445 141.69918457 130.72421265 141.70922852 131.4977417 C141.87991637 148.04635633 141.79199952 164.02354116 137.44140625 180.12109375 C137.2594873 180.80671387 137.07756836 181.49233398 136.89013672 182.19873047 C132.56759349 197.87036395 125.21922876 212.21090687 115.44140625 225.12109375 C114.80589844 225.97960937 114.17039062 226.838125 113.515625 227.72265625 C91.49421192 256.44623852 58.81659728 272.89598596 23.37646484 278.10351562 C-13.62071761 282.90902783 -52.86006982 275.83106703 -83.09765625 253.22265625 C-85.63064576 251.23861184 -88.10039672 249.19690458 -90.55859375 247.12109375 C-91.37070313 246.4559375 -92.1828125 245.79078125 -93.01953125 245.10546875 C-117.9121538 223.90355049 -131.91006191 190.77936764 -135.27734375 158.7578125 C-138.11661614 118.5984886 -131.15716021 79.36055595 -104.8984375 47.74609375 C-79.56187618 19.3217712 -47.02654315 3.44847176 -8.93359375 0.37109375 C-5.95580921 0.22863265 -2.97769425 0.14092904 0 0 Z M-48.55859375 83.12109375 C-65.52484618 103.43060402 -67.27175841 130.45269758 -65.35644531 155.79589844 C-63.75881212 170.29517322 -58.71417744 183.71214024 -49.55859375 195.12109375 C-48.79482422 196.14589844 -48.79482422 196.14589844 -48.015625 197.19140625 C-38.13821216 209.62962982 -22.9422423 216.7352916 -7.44140625 218.83984375 C11.66557743 220.70393972 29.22948134 215.82468283 44.44140625 204.12109375 C45.45203125 203.39921875 46.46265625 202.67734375 47.50390625 201.93359375 C63.29485945 188.24511874 69.58348892 167.1368262 71.1875 147.0546875 C72.58466402 124.33617165 68.34178952 100.88132802 53.26171875 83.0625 C41.32725471 70.33411239 26.30395685 61.58007463 8.64453125 60.78125 C-14.50421626 60.20410943 -32.63702315 65.97478695 -48.55859375 83.12109375 Z " fill="#FFFFFF" transform="translate(1513.55859375,335.87890625)"/>
<path d="M0 0 C22.77 0 45.54 0 69 0 C69 22.11 69 44.22 69 67 C89.13 67 109.26 67 130 67 C130 85.48 130 103.96 130 123 C109.87 123 89.74 123 69 123 C69.11979552 146.21685962 69.11979552 146.21685962 69.2578125 169.43359375 C69.31816453 178.90541375 69.37653601 188.37721574 69.421875 197.84912109 C69.45490884 204.74839107 69.49480221 211.64758222 69.54279006 218.54676497 C69.56794231 222.1967854 69.58975625 225.8467543 69.60334396 229.49683762 C69.61867474 233.58052567 69.6493258 237.66396575 69.68115234 241.74755859 C69.68331253 242.94590332 69.68547272 244.14424805 69.68769836 245.37890625 C69.78142283 254.81907765 70.11394633 264.25519254 76 272 C81.02760137 275.39311368 86.26378545 277.0778509 92.30957031 277.20532227 C93.58791748 277.23559509 93.58791748 277.23559509 94.89208984 277.26647949 C95.77848145 277.28295532 96.66487305 277.29943115 97.578125 277.31640625 C98.39974121 277.33505737 99.22135742 277.3537085 100.06787109 277.3729248 C103.12847438 277.44107303 106.18924955 277.50131701 109.25 277.5625 C116.0975 277.706875 122.945 277.85125 130 278 C130 297.47 130 316.94 130 337 C122.925625 337.020625 115.85125 337.04125 108.5625 337.0625 C106.36795166 337.071604 104.17340332 337.08070801 101.91235352 337.09008789 C73.5930987 337.15969308 43.01559244 336.73401976 20.93359375 316.12109375 C3.96247392 297.50428957 -0.18181182 274.46223085 -0.11352539 250.03491211 C-0.11324282 248.64443972 -0.11340261 247.25396718 -0.1139679 245.86349487 C-0.11425315 242.11413412 -0.10840048 238.36480579 -0.10139394 234.61545253 C-0.09511504 230.68769291 -0.09455303 226.75993244 -0.09336853 222.83216858 C-0.09026854 215.40573285 -0.0820732 207.97931195 -0.07201904 200.55288273 C-0.06081642 192.09334488 -0.05533702 183.63380631 -0.05032361 175.17426288 C-0.03988939 157.78283182 -0.02156057 140.39142107 0 123 C-10.56 123 -21.12 123 -32 123 C-32 104.52 -32 86.04 -32 67 C-21.44 67 -10.88 67 0 67 C0 44.89 0 22.78 0 0 Z " fill="#FFFFFF" transform="translate(1715,274)"/>
<path d="M0 0 C20.79 0 41.58 0 63 0 C65.25 14.625 65.25 14.625 65.22705078 20.2590332 C65.22689972 21.51935867 65.22674866 22.77968414 65.22659302 24.07820129 C65.21627045 25.38915268 65.20594788 26.70010406 65.1953125 28.05078125 C65.19157001 29.44467462 65.18872891 30.83857068 65.18673706 32.23246765 C65.17919763 35.85407112 65.1596359 39.47550732 65.1373291 43.0970459 C65.11665845 46.81141906 65.10769057 50.52581995 65.09765625 54.24023438 C65.076378 61.49356482 65.04236353 68.74675874 65 76 C65.61098541 76.19653168 66.22197083 76.39306335 66.85147095 76.59555054 C68.05928726 76.98983749 68.05928726 76.98983749 69.29150391 77.39208984 C70.08811432 77.65049652 70.88472473 77.9089032 71.70547485 78.17514038 C90.94981626 85.09329517 107.25221885 103.13876968 116.1640625 121.16455078 C118.63955328 126.59993037 120.37332482 132.26034938 122 138 C122.23460937 138.80953125 122.46921875 139.6190625 122.7109375 140.453125 C124.46101928 147.30127111 124.48459097 153.78427354 125 161 C64.94 161 4.88 161 -57 161 C-55.11497509 132.72462637 -45.58501736 109.33307236 -24.1953125 90.53515625 C-17.18660639 84.97947458 -5.35951556 76 4 76 C3.90673496 68.72643034 3.79931794 61.45316267 3.68261719 54.17993164 C3.64461991 51.7118794 3.60971933 49.24377727 3.578125 46.77563477 C3.40857287 33.6909791 3.14184462 20.92952732 1 8 C0.505 4.04 0.505 4.04 0 0 Z " fill="#4E7DF3" transform="translate(461,488)"/>
<path d="M0 0 C20.79 0 41.58 0 63 0 C62.01 7.26 61.02 14.52 60 22 C59.72766345 26.6953836 59.51633672 31.27339756 59.48828125 35.9609375 C59.46135445 37.71212387 59.46135445 37.71212387 59.43388367 39.49868774 C59.3809297 43.12409128 59.34626405 46.74937277 59.3125 50.375 C59.27922483 52.87631875 59.24472634 55.37762153 59.20898438 57.87890625 C59.12527432 63.9191603 59.05645616 69.95943281 59 76 C59.75829102 76.13647949 60.51658203 76.27295898 61.29785156 76.41357422 C70.77302816 78.46989642 79.79944159 84.73236065 87 91 C87.80953125 91.66644531 88.6190625 92.33289063 89.453125 93.01953125 C108.71903442 109.41919341 117.86061213 132.25629032 120 157 C120 158.32 120 159.64 120 161 C59.94 161 -0.12 161 -62 161 C-60.82017993 144.48251902 -60.82017993 144.48251902 -58.9375 137.625 C-58.72198486 136.829729 -58.50646973 136.03445801 -58.28442383 135.21508789 C-54.6557526 122.61069207 -48.7158994 111.80108055 -40 102 C-39.40960938 101.25621094 -38.81921875 100.51242187 -38.2109375 99.74609375 C-29.32154326 88.87077101 -16.79615215 81.45824569 -4 76 C-3.34 76 -2.68 76 -2 76 C-2.00444122 75.23959915 -2.00888245 74.4791983 -2.01345825 73.695755 C-2.05379563 66.47418544 -2.08411539 59.25267172 -2.10362434 52.03101826 C-2.11399175 48.31970158 -2.12801946 44.60847922 -2.15087891 40.8972168 C-2.17286208 37.30509218 -2.18462133 33.71305737 -2.18975449 30.12087059 C-2.19516258 28.10661732 -2.21073301 26.09239938 -2.22659302 24.07820129 C-2.22681961 22.18771309 -2.22681961 22.18771309 -2.22705078 20.2590332 C-2.231492 19.16871292 -2.23593323 18.07839264 -2.24050903 16.95503235 C-1.89447699 11.26473496 -0.86684895 5.63451821 0 0 Z " fill="#4E7DF3" transform="translate(186,488)"/>
<path d="M0 0 C12.11860803 8.36552247 19.45672301 21.67101893 22.125 36.0625 C25.25509256 55.52411873 21.43992026 73.32891081 10.2109375 89.5078125 C0.87551009 100.84094454 -11.29624913 105.17757704 -25.40625 107.09375 C-39.94559367 107.74476539 -51.0846741 101.74193825 -61.875 92.75 C-62.205 113.87 -62.535 134.99 -62.875 156.75 C-72.445 156.75 -82.015 156.75 -91.875 156.75 C-91.875 103.29 -91.875 49.83 -91.875 -5.25 C-82.305 -5.25 -72.735 -5.25 -62.875 -5.25 C-62.545 -1.29 -62.215 2.67 -61.875 6.75 C-60.76125 5.698125 -59.6475 4.64625 -58.5 3.5625 C-41.99766328 -10.86609176 -18.36283184 -10.88813774 0 0 Z M-54.875 25.75 C-62.60308158 35.73048727 -63.8420296 45.37446934 -62.875 57.75 C-61.07328164 65.98180306 -56.43647497 72.39621429 -49.69140625 77.35546875 C-42.73793728 81.43164021 -35.76657059 81.8553635 -27.875 80.75 C-19.44321738 78.24914475 -14.07967935 72.96116998 -9.55859375 65.609375 C-5.45442439 57.20083289 -5.53058017 46.68659543 -7.5703125 37.6796875 C-10.68381975 29.12408354 -15.77245434 23.90959437 -23.7265625 19.6953125 C-33.83257348 15.24866767 -47.23210974 17.67037316 -54.875 25.75 Z " fill="#4F7DF3" transform="translate(2646.875,405.25)"/>
<path d="M0 0 C0.8758374 0.00563965 1.7516748 0.0112793 2.65405273 0.01708984 C17.73140917 0.29844098 29.8852547 5.36113481 40.89453125 15.7578125 C54.17134267 30.55003511 54.1875 45.9054128 54.1875 65.3125 C27.7875 65.3125 1.3875 65.3125 -25.8125 65.3125 C-23.79388239 74.39627924 -21.97611836 79.85758264 -14.875 85.75 C-7.33672472 89.59605881 -0.1830668 90.50798296 7.875 88.0625 C11.58225513 86.697005 14.36046347 85.13953653 17.1875 82.3125 C17.58042236 81.45374268 17.97334473 80.59498535 18.37817383 79.71020508 C20.1875 77.3125 20.1875 77.3125 23.3737793 76.74487305 C24.65679932 76.77105713 25.93981934 76.79724121 27.26171875 76.82421875 C28.28746758 76.83483086 28.28746758 76.83483086 29.3339386 76.84565735 C31.51541159 76.87361996 33.69430494 76.93634936 35.875 77 C37.3547806 77.02508103 38.83460149 77.04789456 40.31445312 77.06835938 C43.93963863 77.12344865 47.56331753 77.20972892 51.1875 77.3125 C49.64764638 87.74516653 43.41844653 96.80626629 35.1875 103.3125 C21.03011421 113.02489745 6.13340459 116.03057855 -10.75 113.5625 C-24.06723729 111.07616158 -35.46609507 105.35708386 -44.18359375 94.70703125 C-49.35137266 87.11027233 -53.75459284 78.5162923 -54.8125 69.3125 C-54.94398438 68.29027344 -55.07546875 67.26804687 -55.2109375 66.21484375 C-56.98361142 48.7441575 -54.03777154 31.94499823 -43.03515625 17.81640625 C-31.77309483 5.12926852 -16.64833318 -0.11293568 0 0 Z M-19.8125 31.3125 C-24.18367624 36.35616489 -24.22713143 39.17834145 -25.8125 46.3125 C-8.9825 46.3125 7.8475 46.3125 25.1875 46.3125 C23.24768382 37.58332718 21.72009866 32.55949863 14.625 27.5 C2.68188544 20.69467812 -9.62398896 22.78115641 -19.8125 31.3125 Z " fill="#4E7DF3" transform="translate(2401.8125,397.6875)"/>
<path d="M0 0 C1.31266846 0.00737183 1.31266846 0.00737183 2.65185547 0.01489258 C17.26785027 0.27835338 29.21571379 4.75059944 39.86328125 14.86328125 C49.90081206 25.44064565 53.71491705 36.98828399 55.1875 51.3125 C54.8575 55.9325 54.5275 60.5525 54.1875 65.3125 C27.7875 65.3125 1.3875 65.3125 -25.8125 65.3125 C-22.06244757 77.81474817 -22.06244757 77.81474817 -12.8125 86.3125 C-4.97143522 89.88962809 1.92619446 90.22831648 10.04296875 87.296875 C14.00287669 85.47921234 17.21333497 83.01519644 19.40942383 79.17675781 C21.1875 77.3125 21.1875 77.3125 24.3737793 76.85839844 C25.65679932 76.8793457 26.93981934 76.90029297 28.26171875 76.921875 C29.28746758 76.93036469 29.28746758 76.93036469 30.3339386 76.93902588 C32.51500899 76.96139184 34.69442753 77.01158235 36.875 77.0625 C38.35479395 77.082565 39.8346137 77.10081578 41.31445312 77.1171875 C44.9393376 77.16125526 48.56325756 77.23028178 52.1875 77.3125 C51.59893149 79.04998 50.99902101 80.78361987 50.39453125 82.515625 C50.06171143 83.48145508 49.7288916 84.44728516 49.38598633 85.44238281 C47.4510495 90.07614067 44.49939424 93.59015732 41.1875 97.3125 C40.68734375 97.92867188 40.1871875 98.54484375 39.671875 99.1796875 C30.66231846 109.41781994 16.1203945 113.49834828 2.984375 114.4765625 C-12.85623689 115.05353843 -28.07771662 110.06238802 -39.75 99.25 C-51.96476987 86.11777319 -55.66972135 69.86677317 -55.15625 52.359375 C-54.34454704 37.08776369 -48.90149656 23.06257995 -37.59765625 12.41796875 C-26.35418048 3.9183426 -14.0199079 -0.09375593 0 0 Z M-18.8125 31.3125 C-23.66003043 36.02901609 -23.59931511 38.93521702 -25.8125 46.3125 C-8.9825 46.3125 7.8475 46.3125 25.1875 46.3125 C24.03180006 38.2226004 22.56872409 33.91191382 16.25 29 C4.51710825 20.89050129 -8.29720575 21.77703998 -18.8125 31.3125 Z " fill="#4E7DF3" transform="translate(2978.8125,397.6875)"/>
<path d="M0 0 C9.06818968 8.14890584 13.57070351 19.54453277 16.4609375 31.10546875 C16.4609375 38.36546875 16.4609375 45.62546875 16.4609375 53.10546875 C-9.9390625 53.10546875 -36.3390625 53.10546875 -63.5390625 53.10546875 C-60.21429876 65.94985507 -60.21429876 65.94985507 -51.1015625 73.85546875 C-50.36035156 74.2628125 -49.61914062 74.67015625 -48.85546875 75.08984375 C-41.82893794 78.17061611 -34.76726097 77.65112246 -27.6875 75.08984375 C-22.75942582 72.83188976 -19.99030224 70.00794824 -17.5390625 65.10546875 C-6.9790625 65.10546875 3.5809375 65.10546875 14.4609375 65.10546875 C8.12271093 80.95103517 1.18160525 90.28107377 -14.07421875 97.66015625 C-28.90377327 103.84610346 -45.64180818 103.72826569 -60.6015625 97.98046875 C-72.8344313 92.47088685 -82.92938705 84.03224295 -88.171875 71.3984375 C-94.36466974 54.50095472 -95.36790713 34.57657633 -88.1328125 17.85546875 C-81.20970538 3.74800518 -70.80969047 -4.88861743 -56.25 -10.09765625 C-37.04893674 -15.74177283 -15.90782974 -11.86968835 0 0 Z M-54.5390625 17.10546875 C-59.22215982 21.61639338 -61.64516297 25.89768697 -63.5390625 32.10546875 C-63.5390625 32.76546875 -63.5390625 33.42546875 -63.5390625 34.10546875 C-46.7090625 34.10546875 -29.8790625 34.10546875 -12.5390625 34.10546875 C-14.49094659 25.32199034 -15.55011522 21.10033877 -22.5390625 15.85546875 C-32.7274722 9.48771269 -45.15760788 9.39182828 -54.5390625 17.10546875 Z " fill="#4E7DF3" transform="translate(2110.5390625,409.89453125)"/>
<path d="M0 0 C10.6732438 7.7032977 17.22285389 19.4753581 19.78125 32.3046875 C21.37664169 44.93945615 18.6470167 57.95253854 11.05859375 68.24609375 C2.80545699 78.1849776 -7.69969407 86.53744127 -21.01025391 87.84228516 C-31.09988495 88.32157832 -40.63303134 88.45067178 -49.75390625 83.62109375 C-50.62273437 83.17378906 -51.4915625 82.72648437 -52.38671875 82.265625 C-63.98320514 75.80967063 -71.61239458 66.086886 -75.69140625 53.37109375 C-78.96105944 39.18897304 -76.97387575 25.34961188 -69.56640625 12.80859375 C-62.15158055 2.00054273 -51.61996096 -5.01941085 -38.84008789 -7.99951172 C-24.90635397 -10.53351084 -11.86995582 -7.61576366 0 0 Z " fill="#4E7DF3" transform="translate(548.75390625,273.37890625)"/>
<path d="M0 0 C1.36705746 1.00350484 2.72271157 2.02286784 4.0625 3.0625 C5.09375 3.805 6.125 4.5475 7.1875 5.3125 C15.92850326 13.67345964 21.48392224 24.48816734 22.30078125 36.59375 C22.5826397 51.66575998 19.13343259 64.06795717 8.84375 75.53515625 C-1.91206368 85.99413741 -13.67135548 89.36549584 -28.15771484 89.37719727 C-41.85232807 89.16865612 -51.73999131 83.97919844 -61.6875 74.75 C-70.75307759 65.17127651 -74.88482278 53.12645025 -74.9375 40.0625 C-74.30726032 26.5719641 -68.6895409 14.84184113 -59.3125 5.1796875 C-43.0725852 -9.29734181 -18.46036785 -11.88712539 0 0 Z " fill="#4F7DF3" transform="translate(215.9375,271.9375)"/>
<path d="M0 0 C10.56473761 8.63354901 14.93341337 19.85674226 16.54296875 33.078125 C16.79967881 38.61592902 16.77730254 44.14120125 16.73828125 49.68359375 C16.73454259 51.25970783 16.73169966 52.83582427 16.72970581 54.41194153 C16.72213641 58.52347437 16.70254697 62.63486178 16.68029785 66.74633789 C16.65969369 70.95652297 16.6506732 75.16673196 16.640625 79.37695312 C16.61929346 87.61075066 16.58416747 95.84440288 16.54296875 104.078125 C6.97296875 104.078125 -2.59703125 104.078125 -12.45703125 104.078125 C-12.47161377 102.06533447 -12.48619629 100.05254395 -12.5012207 97.97875977 C-12.55173669 91.30106751 -12.61836092 84.62360428 -12.69274616 77.94613743 C-12.73732294 73.90071701 -12.7766063 69.85539437 -12.8034668 65.80981445 C-12.82962739 61.89980356 -12.87011791 57.99017148 -12.92021751 54.08039665 C-12.93680056 52.59465208 -12.94836784 51.10884212 -12.95464516 49.62301826 C-12.84721896 35.98318011 -12.84721896 35.98318011 -18.89453125 24.203125 C-19.74015625 23.501875 -20.58578125 22.800625 -21.45703125 22.078125 C-22.35035156 21.31048828 -22.35035156 21.31048828 -23.26171875 20.52734375 C-28.5909469 17.00929456 -36.1618666 16.51937524 -42.33203125 17.703125 C-48.4378453 19.43660204 -53.0636531 22.69552517 -56.45703125 28.078125 C-59.94193439 36.31251236 -59.93034191 44.71051171 -59.96875 53.4921875 C-59.98562947 54.9576464 -60.00378401 56.42309111 -60.02314758 57.88851929 C-60.07029979 61.71225548 -60.10033247 65.53593414 -60.12658691 69.35986328 C-60.15656981 73.27518067 -60.20303835 77.19030037 -60.24804688 81.10546875 C-60.33368345 88.76293877 -60.39967581 96.42038135 -60.45703125 104.078125 C-69.69703125 104.078125 -78.93703125 104.078125 -88.45703125 104.078125 C-88.45703125 67.778125 -88.45703125 31.478125 -88.45703125 -5.921875 C-79.21703125 -5.921875 -69.97703125 -5.921875 -60.45703125 -5.921875 C-60.12703125 -2.291875 -59.79703125 1.338125 -59.45703125 5.078125 C-58.30203125 4.005625 -57.14703125 2.933125 -55.95703125 1.828125 C-40.44272845 -11.66850046 -16.70074267 -11.47121719 0 0 Z " fill="#4E7DF3" transform="translate(2235.45703125,405.921875)"/>
<path d="M0 0 C42.9 0 85.8 0 130 0 C130 18.48828572 124.06286516 34.65707341 111 48 C96.5545577 60.53497895 80.14340742 66.94539434 61.015625 66.3828125 C43.4327413 65.01640072 27.11667823 57.50615641 15.48828125 44.10546875 C8.86409796 35.57614845 4.41069148 27.34678763 1.6875 16.9375 C1.51565186 16.2887793 1.34380371 15.64005859 1.16674805 14.97167969 C-0.10838069 9.66874223 0 5.74266855 0 0 Z " fill="#4E7DF2" transform="translate(290,293)"/>
<path d="M0 0 C7.28245258 5.75522742 13.14986014 12.97333008 14.76953125 22.3984375 C14.76953125 24.7084375 14.76953125 27.0184375 14.76953125 29.3984375 C5.85953125 29.3984375 -3.05046875 29.3984375 -12.23046875 29.3984375 C-13.55046875 26.7584375 -14.87046875 24.1184375 -16.23046875 21.3984375 C-21.77466843 16.12468659 -26.66892573 16.06434306 -34.046875 16.10546875 C-38.33750688 16.50031217 -40.13430349 17.47428142 -43.23046875 20.3984375 C-45.04943848 24.03637696 -44.48301077 27.64081143 -43.23046875 31.3984375 C-40.01326003 32.95900557 -36.62703187 33.93625742 -33.203125 34.94921875 C-32.25260254 35.23289307 -31.30208008 35.51656738 -30.32275391 35.80883789 C-29.3229248 36.10653076 -28.3230957 36.40422363 -27.29296875 36.7109375 C6.84266964 47.04364171 6.84266964 47.04364171 13.76953125 59.3984375 C16.89018255 67.1514743 17.20314193 75.81299158 14.70703125 83.796875 C9.96831751 94.02116497 3.4045392 99.40027788 -7.01171875 103.3984375 C-12.35454142 105.05834357 -17.66987068 105.87848547 -23.23046875 106.3984375 C-24.34808594 106.50671875 -24.34808594 106.50671875 -25.48828125 106.6171875 C-39.42892686 107.25326258 -52.97846462 103.09911944 -63.54296875 94.0859375 C-67.61978086 90.23952608 -70.70035306 86.39237763 -73.23046875 81.3984375 C-73.88015625 80.1609375 -73.88015625 80.1609375 -74.54296875 78.8984375 C-75.23046875 76.3984375 -75.23046875 76.3984375 -75.23046875 68.3984375 C-65.99046875 68.3984375 -56.75046875 68.3984375 -47.23046875 68.3984375 C-45.91046875 71.0384375 -44.59046875 73.6784375 -43.23046875 76.3984375 C-38.59757047 81.03133578 -33.78613557 82.47800105 -27.35546875 82.7734375 C-22.39249761 82.66848041 -18.16261561 81.52102471 -14.23046875 78.3984375 C-12.58359243 75.75921262 -12.23046875 74.57024698 -12.23046875 71.3984375 C-13.60132701 67.28586271 -15.51048083 66.54333381 -19.23046875 64.3984375 C-21.75265747 63.47740388 -24.17883349 62.67858775 -26.75390625 61.9609375 C-27.81141586 61.65071655 -27.81141586 61.65071655 -28.89028931 61.33422852 C-31.12598323 60.67920058 -33.36517869 60.03755348 -35.60546875 59.3984375 C-64.26577797 51.18314505 -64.26577797 51.18314505 -70.6875 39.8203125 C-74.51790853 30.34580377 -74.43321306 21.3912356 -70.53125 11.96484375 C-65.7121261 2.45684254 -57.84988978 -1.73708282 -48.23046875 -5.6015625 C-32.78220851 -10.35975354 -13.53269233 -9.40165994 0 0 Z " fill="#4E7DF3" transform="translate(2893.23046875,405.6015625)"/>
<path d="M0 0 C9.57 0 19.14 0 29 0 C29 8.91 29 17.82 29 27 C37.25 27 45.5 27 54 27 C54 34.59 54 42.18 54 50 C45.75 50 37.5 50 29 50 C29.09686705 57.90231222 29.19955838 65.80409159 29.31738281 73.70605469 C29.35678011 76.3948189 29.39136788 79.0835815 29.421875 81.77246094 C29.46748377 85.63495331 29.52548615 89.49708997 29.5859375 93.359375 C29.59748871 94.5636615 29.60903992 95.767948 29.62094116 97.00872803 C29.64081085 98.12958801 29.66068054 99.250448 29.68115234 100.40527344 C29.69447601 101.39122498 29.70779968 102.37717651 29.7215271 103.39300537 C30.01069761 106.10014841 30.50221047 107.73757498 32 110 C36.66548308 112.17162125 41.32016691 112.40486176 46.375 112.625 C50.149375 112.810625 50.149375 112.810625 54 113 C54 120.92 54 128.84 54 137 C50.1225 137.061875 46.245 137.12375 42.25 137.1875 C40.4561084 137.22846802 40.4561084 137.22846802 38.62597656 137.27026367 C27.56068448 137.3544207 16.36443165 135.85097149 8 128 C-0.2530061 117.88341188 -0.30408678 105.99700802 -0.1953125 93.45703125 C-0.1924826 92.20742111 -0.18965271 90.95781097 -0.18673706 89.67033386 C-0.17751184 86.38734978 -0.15962088 83.1045715 -0.1373291 79.82165527 C-0.11667588 76.45599859 -0.1076942 73.09031149 -0.09765625 69.72460938 C-0.07572157 63.14965046 -0.04125754 56.57486491 0 50 C-4.29 50 -8.58 50 -13 50 C-13 42.41 -13 34.82 -13 27 C-8.71 27 -4.42 27 0 27 C0 18.09 0 9.18 0 0 Z " fill="#4F7DF2" transform="translate(2281,373)"/>
<path d="M0 0 C0 9.9 0 19.8 0 30 C-4.62 30.33 -9.24 30.66 -14 31 C-21.36268195 33.03651324 -21.36268195 33.03651324 -27.5 37.1875 C-32.10674403 45.82514505 -32.46752291 53.99362391 -32.51171875 63.66015625 C-32.52859534 65.05978438 -32.54674951 66.45939764 -32.56611633 67.85899353 C-32.61329982 71.51341092 -32.64331244 75.16776796 -32.66955566 78.8223877 C-32.69952253 82.56335279 -32.74583933 86.30411463 -32.79101562 90.04492188 C-32.87821154 97.36329534 -32.938426 104.68118718 -33 112 C-42.57 112 -52.14 112 -62 112 C-62 75.7 -62 39.4 -62 2 C-52.43 2 -42.86 2 -33 2 C-32.67 6.29 -32.34 10.58 -32 15 C-31.38125 14.13375 -30.7625 13.2675 -30.125 12.375 C-22.57051473 3.3734584 -11.31461845 0 0 0 Z " fill="#4E7DF3" transform="translate(2537,398)"/>
<path d="M0 0 C0 9.9 0 19.8 0 30 C-4.62 30.33 -9.24 30.66 -14 31 C-20.34630648 32.58657662 -24.52496735 34.20532216 -29 39 C-33.99659494 47.95468192 -33.1756517 59.2036114 -33.31640625 69.12890625 C-33.33718735 70.35915024 -33.35796844 71.58939423 -33.37937927 72.85691833 C-33.4443833 76.75872605 -33.50352978 80.6605969 -33.5625 84.5625 C-33.60525553 87.21941588 -33.64934774 89.87630751 -33.69335938 92.53320312 C-33.8007306 99.02207187 -33.90016913 105.5109934 -34 112 C-43.24 112 -52.48 112 -62 112 C-62 75.7 -62 39.4 -62 2 C-52.76 2 -43.52 2 -34 2 C-33.505 8.93 -33.505 8.93 -33 16 C-32.01 14.783125 -31.02 13.56625 -30 12.3125 C-21.72446171 2.92581729 -12.33325765 0 0 0 Z " fill="#4F7DF3" transform="translate(2751,398)"/>
<path d="M0 0 C9.24 0 18.48 0 28 0 C28 36.3 28 72.6 28 110 C18.76 110 9.52 110 0 110 C0 73.7 0 37.4 0 0 Z " fill="#4F7DF3" transform="translate(2769,400)"/>
<path d="M0 0 C4.31428023 2.3606439 7.35107886 4.30578095 9.16796875 9.04296875 C10.73741727 15.17808568 10.48301612 20.25038348 7.3125 25.8125 C4.1864661 29.28679232 0.98082355 31.68202854 -3.734375 32.05078125 C-13.7099466 32.25071359 -13.7099466 32.25071359 -18.3125 30.1875 C-22.97241201 25.52758799 -24.94007203 22.47656003 -25.1875 15.8125 C-24.99750458 10.69529006 -24.31583663 7.63180172 -20.6875 3.8125 C-13.97177571 -1.25855712 -8.0108413 -2.57976245 0 0 Z " fill="#4E7DF3" transform="translate(2790.6875,355.1875)"/>
</svg>
