<?xml version="1.0" encoding="UTF-8" standalone="no"?>
<!-- Created with Inkscape (http://www.inkscape.org/) -->

<svg
   width="101.89922mm"
   height="98.867432mm"
   viewBox="0 0 101.89922 98.867432"
   version="1.1"
   id="svg1"
   xml:space="preserve"
   xmlns="http://www.w3.org/2000/svg"
   xmlns:svg="http://www.w3.org/2000/svg"><defs
     id="defs1" /><g
     id="layer1"
     transform="translate(-53.821882,-99.093825)"><path
       style="display:inline;fill:#f59f0a;fill-opacity:1"
       d="m 71.755004,197.17388 c 0,-1.33545 0.826925,-4.04831 1.698153,-5.57105 1.050491,-1.83607 3.423135,-4.09141 5.310179,-5.04765 l 1.458334,-0.73899 0.0025,-3.8758 c 0.0013,-2.1317 0.08254,-4.54256 0.180422,-5.35747 l 0.177969,-1.48167 h 4.314742 4.314742 l -0.191275,1.62278 c -0.105202,0.89253 -0.191276,3.26069 -0.191276,5.26259 v 3.6398 l 1.693333,0.91373 c 3.9257,2.11831 6.896963,6.63421 6.911095,10.50388 l 0.0033,0.91722 h -12.84111 -12.84111 z m 40.456756,-0.97652 c 0.38082,-3.74449 3.16052,-7.68367 6.81546,-9.65836 l 1.69334,-0.91487 -0.003,-3.77977 c -0.002,-2.07888 -0.091,-4.44653 -0.19837,-5.26144 l -0.19528,-1.48167 h 4.32094 4.32094 l 0.18132,1.73473 c 0.0997,0.95411 0.18131,3.35966 0.18131,5.34568 v 3.61094 l 1.70519,0.90885 c 2.05622,1.09595 4.46942,3.61609 5.43279,5.67354 0.67852,1.44909 1.32869,3.91322 1.32869,5.03571 v 0.55055 h -12.88132 -12.88131 z m -35.313676,-27.0239 c -2.821319,-0.74411 -5.290783,-1.97573 -7.627679,-3.80422 -1.821974,-1.4256 -4.252283,-4.23757 -4.923551,-5.69676 -0.219299,-0.4767 -0.688853,-0.68302 -2.122815,-0.93273 -2.286367,-0.39816 -3.712467,-1.11224 -5.430343,-2.71911 -2.465447,-2.30614 -3.525054,-5.92008 -2.690681,-9.17696 1.098681,-4.28857 4.462506,-7.16956 8.775355,-7.51575 l 1.741245,-0.13977 0.518021,-0.88179 c 1.503231,-2.55883 5.557684,-5.87611 8.896443,-7.2789 3.549302,-1.49126 5.156821,-1.64622 17.077972,-1.64622 h 10.840729 v -1.79837 -1.79838 l -1.09066,-0.1744 c -2.016005,-0.32237 -5.453304,-2.28734 -7.194531,-4.11284 -7.101192,-7.44486 -3.584538,-18.87446 6.741461,-21.91067 2.23329,-0.656666 6.2112,-0.657085 8.45817,-8.91e-4 5.60606,1.637161 9.42801,5.737101 10.3477,11.100321 1.05853,6.17289 -3.09577,12.44604 -9.62503,14.53416 l -1.98022,0.63329 -0.006,1.76389 -0.006,1.76389 h 10.84073 c 11.73805,0 13.43038,0.15405 16.81896,1.53095 3.47207,1.41083 7.61695,4.75737 9.1581,7.39417 l 0.51538,0.88179 1.76324,0.14154 c 7.03046,0.56433 11.20178,8.19439 7.84829,14.35585 -1.47244,2.70535 -4.01792,4.49568 -7.18027,5.05012 l -1.80554,0.31656 -0.84667,1.43902 c -1.1951,2.03123 -4.3037,5.06293 -6.55459,6.39245 -1.05164,0.62116 -2.92807,1.48598 -4.16985,1.9218 l -2.25778,0.79242 -26.38777,0.0586 -26.38778,0.0586 z m 54.425136,-6.09357 c 10.71555,-3.14745 13.92792,-16.31722 5.79232,-23.74685 -3.18976,-2.91296 -6.08864,-3.73279 -13.21998,-3.73873 l -5.00945,-0.004 v 0.85791 c 0,0.97855 -0.81302,2.72076 -1.60307,3.43522 -1.41489,1.27949 -2.07972,1.35132 -12.50804,1.35132 -10.428315,0 -11.093146,-0.0718 -12.508033,-1.35132 -0.790054,-0.71446 -1.603075,-2.45667 -1.603075,-3.43522 v -0.85791 l -4.727222,0.002 c -5.747852,0.002 -7.470543,0.26163 -10.136776,1.52782 -7.199301,3.41893 -10.023386,12.04926 -6.255886,19.11781 1.655541,3.10611 4.447321,5.38768 8.137662,6.65044 l 1.834445,0.62772 25.137105,0.007 c 22.19753,0.006 25.31637,-0.0454 26.67,-0.44296 z m -27.46545,-3.52347 c -1.32485,-0.77166 -1.74026,-3.41059 -0.7838,-4.97926 1.00849,-1.65401 2.79354,-1.47404 3.55937,0.35885 1.15735,2.76993 -0.68554,5.83774 -2.77557,4.62041 z m -21.380149,-1.35353 c -2.192969,-0.71804 -4.118925,-2.50193 -5.180316,-4.7982 -0.887171,-1.91936 -0.863505,-6.10009 0.04573,-8.07788 1.388981,-3.02137 3.876199,-4.76386 6.829749,-4.78478 3.027771,-0.0215 5.290528,1.52944 6.739518,4.61926 0.635226,1.35455 0.73934,1.95428 0.739159,4.25774 -1.73e-4,2.1995 -0.116742,2.93459 -0.648928,4.09222 -0.775158,1.68615 -2.328613,3.36462 -3.831873,4.14025 -1.215573,0.62718 -3.604365,0.90785 -4.693036,0.55139 z m 3.481291,-2.67771 c 1.072138,-0.44797 2.354301,-1.87477 2.951019,-3.28393 0.566591,-1.33801 0.536264,-4.37687 -0.05774,-5.78555 -0.921228,-2.18471 -2.702744,-3.52778 -4.679411,-3.52778 -2.946997,0 -5.082755,2.71532 -5.077243,6.45502 0.0068,4.61453 3.352866,7.60903 6.863375,6.14224 z m 37.434108,2.49148 c -1.86175,-0.57391 -3.48315,-2.10086 -4.56561,-4.29965 -0.83285,-1.69176 -0.92844,-2.13629 -0.92297,-4.29205 0.005,-2.02847 0.12901,-2.66982 0.7914,-4.09815 1.52792,-3.29473 3.63783,-4.77589 6.82249,-4.7894 1.65587,-0.007 2.18913,0.11717 3.29534,0.76745 2.74699,1.61482 4.23148,4.46671 4.22345,8.11375 -0.007,3.32687 -1.35496,6.17034 -3.64153,7.68352 -2.01088,1.33074 -3.7787,1.60008 -6.00257,0.91453 z m 3.90322,-2.50466 c 2.12255,-1.10887 3.28902,-3.26491 3.29645,-6.09297 0.005,-1.82198 -0.11033,-2.32589 -0.82686,-3.61946 -2.76866,-4.99834 -8.91496,-3.11165 -9.39626,2.88431 -0.15922,1.98353 0.19091,3.42004 1.22646,5.03194 1.21219,1.88684 3.90341,2.73487 5.70021,1.79618 z m -17.7012,-34.51875 c 4.4476,-2.19176 6.70002,-6.51074 5.51726,-10.57929 -1.44893,-4.98415 -6.75631,-8.18909 -12.09978,-7.30664 -5.43919,0.89826 -9.084164,4.70674 -9.074658,9.48171 0.0048,2.40414 0.671718,4.05105 2.399647,5.92563 2.405704,2.60988 4.806631,3.55656 8.741971,3.44694 2.3799,-0.0663 2.9202,-0.18216 4.51556,-0.96835 z m -6.12357,-2.20689 c -0.90039,-1.37418 0.64143,-2.91257 2.12391,-2.11918 0.66866,0.35786 0.82662,1.92307 0.25207,2.49763 -0.60257,0.60257 -1.86494,0.40149 -2.37598,-0.37845 z m 0.1887,-4.40761 c -1.22925,-2.02134 -1.39549,-5.66288 -0.37496,-8.21345 1.60765,-4.01793 4.43899,0.73118 3.49321,5.85929 -0.55346,3.00084 -2.04169,4.12441 -3.11825,2.35416 z"
       id="path1" /></g></svg>
