<svg xmlns="http://www.w3.org/2000/svg" xmlns:xlink="http://www.w3.org/1999/xlink" version="1.1" viewBox="23.25 69.8 465.48 395.68">
<defs>
<radialGradient id="radial0" gradientUnits="userSpaceOnUse" cx="0" cy="0" fx="0" fy="0" r="1" gradientTransform="matrix(77.243233,84.5133,-84.5133,77.243233,342.972501,158.697887)">
<stop offset="0" style="stop-color:rgb(0%,54.901963%,88.627452%);stop-opacity:1;"/>
<stop offset="1" style="stop-color:rgb(0%,40.784314%,77.64706%);stop-opacity:1;"/>
</radialGradient>
<radialGradient id="radial1" gradientUnits="userSpaceOnUse" cx="0" cy="0" fx="0" fy="0" r="1" gradientTransform="matrix(129.418035,77.470438,-68.557735,114.528942,322.51345,341.352717)">
<stop offset="0" style="stop-color:rgb(0%,54.901963%,88.627452%);stop-opacity:1;"/>
<stop offset="1" style="stop-color:rgb(0%,40.784314%,77.64706%);stop-opacity:1;"/>
</radialGradient>
<radialGradient id="radial2" gradientUnits="userSpaceOnUse" cx="0" cy="0" fx="0" fy="0" r="1" gradientTransform="matrix(116.977572,0,0,113.777799,225.532515,359.433305)">
<stop offset="0.607143" style="stop-color:rgb(0%,0%,0%);stop-opacity:0.2;"/>
<stop offset="1" style="stop-color:rgb(0%,0%,0%);stop-opacity:0;"/>
</radialGradient>
<radialGradient id="radial3" gradientUnits="userSpaceOnUse" cx="0" cy="0" fx="0" fy="0" r="1" gradientTransform="matrix(107.381758,0,0,104.444513,225.532515,359.433305)">
<stop offset="0.607143" style="stop-color:rgb(0%,0%,0%);stop-opacity:0.25;"/>
<stop offset="0.794643" style="stop-color:rgb(0%,0%,0%);stop-opacity:0;"/>
</radialGradient>
<radialGradient id="radial4" gradientUnits="userSpaceOnUse" cx="0" cy="0" fx="0" fy="0" r="1" gradientTransform="matrix(88.85733,88.061284,-101.5403,102.458193,137.896262,359.745162)">
<stop offset="0.338691" style="stop-color:rgb(23.921569%,79.607844%,100%);stop-opacity:1;"/>
<stop offset="1" style="stop-color:rgb(7.843138%,69.411767%,100%);stop-opacity:1;"/>
</radialGradient>
<radialGradient id="radial5" gradientUnits="userSpaceOnUse" cx="0" cy="0" fx="0" fy="0" r="1" gradientTransform="matrix(58.266169,100.641496,-100.641496,58.266169,144.980014,135.189875)">
<stop offset="0.338691" style="stop-color:rgb(23.921569%,79.607844%,100%);stop-opacity:1;"/>
<stop offset="1" style="stop-color:rgb(7.843138%,69.411767%,100%);stop-opacity:1;"/>
</radialGradient>
</defs>
<g id="surface1">
<path style=" stroke:none;fill-rule:nonzero;fill:url(#radial0);" d="M 372.363281 256 C 410.925781 256 442.183594 224.742188 442.183594 186.183594 C 442.183594 147.621094 410.925781 116.363281 372.363281 116.363281 C 333.804688 116.363281 302.546875 147.621094 302.546875 186.183594 C 302.546875 224.742188 333.804688 256 372.363281 256 Z M 372.363281 256 "/>
<path style=" stroke:none;fill-rule:nonzero;fill:url(#radial1);" d="M 302.546875 302.546875 L 232.726562 302.546875 L 232.726562 325.816406 L 263.054688 325.816406 C 257.820312 333.847656 254.777344 343.441406 254.777344 353.746094 C 254.777344 353.746094 254.777344 430.546875 371.140625 430.546875 L 372.367188 430.546875 C 488.730469 430.546875 488.730469 353.746094 488.730469 353.746094 C 488.730469 325.46875 465.808594 302.546875 437.53125 302.546875 L 305.976562 302.546875 C 304.824219 302.546875 303.679688 302.582031 302.546875 302.660156 Z M 302.546875 302.546875 "/>
<path style=" stroke:none;fill-rule:nonzero;fill:url(#radial2);" d="M 302.546875 302.546875 L 232.726562 302.546875 L 232.726562 325.816406 L 263.054688 325.816406 C 257.820312 333.847656 254.777344 343.441406 254.777344 353.746094 C 254.777344 353.746094 254.777344 430.546875 371.140625 430.546875 L 372.367188 430.546875 C 488.730469 430.546875 488.730469 353.746094 488.730469 353.746094 C 488.730469 325.46875 465.808594 302.546875 437.53125 302.546875 L 305.976562 302.546875 C 304.824219 302.546875 303.679688 302.582031 302.546875 302.660156 Z M 302.546875 302.546875 "/>
<path style=" stroke:none;fill-rule:nonzero;fill:url(#radial3);" d="M 302.546875 302.546875 L 232.726562 302.546875 L 232.726562 325.816406 L 263.054688 325.816406 C 257.820312 333.847656 254.777344 343.441406 254.777344 353.746094 C 254.777344 353.746094 254.777344 430.546875 371.140625 430.546875 L 372.367188 430.546875 C 488.730469 430.546875 488.730469 353.746094 488.730469 353.746094 C 488.730469 325.46875 465.808594 302.546875 437.53125 302.546875 L 305.976562 302.546875 C 304.824219 302.546875 303.679688 302.582031 302.546875 302.660156 Z M 302.546875 302.546875 "/>
<path style=" stroke:none;fill-rule:nonzero;fill:url(#radial4);" d="M 75.636719 302.546875 C 46.714844 302.546875 23.273438 325.992188 23.273438 354.910156 L 23.273438 360.726562 C 23.273438 360.726562 23.273438 465.453125 162.910156 465.453125 C 302.546875 465.453125 302.546875 360.726562 302.546875 360.726562 L 302.546875 354.910156 C 302.546875 325.992188 279.101562 302.546875 250.183594 302.546875 Z M 75.636719 302.546875 "/>
<path style=" stroke:none;fill-rule:nonzero;fill:url(#radial5);" d="M 162.910156 256 C 214.320312 256 256 214.320312 256 162.910156 C 256 111.496094 214.320312 69.816406 162.910156 69.816406 C 111.496094 69.816406 69.816406 111.496094 69.816406 162.910156 C 69.816406 214.320312 111.496094 256 162.910156 256 Z M 162.910156 256 "/>
</g>
</svg>