<?xml version="1.0" encoding="UTF-8"?>
<svg width="177px" height="195px" viewBox="0 0 177 195" version="1.1" xmlns="http://www.w3.org/2000/svg" xmlns:xlink="http://www.w3.org/1999/xlink">
    <title>icon-ms-sql</title>
    <defs>
        <linearGradient x1="25.8951071%" y1="76.4064363%" x2="38.3411716%" y2="69.6673405%" id="linearGradient-1">
            <stop stop-color="#909CA9" offset="0%"></stop>
            <stop stop-color="#EDEDEE" offset="100%"></stop>
        </linearGradient>
        <linearGradient x1="0.167947727%" y1="49.8457052%" x2="18.5944843%" y2="49.8457052%" id="linearGradient-2">
            <stop stop-color="#939FAB" offset="0%"></stop>
            <stop stop-color="#DCDEE1" offset="100%"></stop>
        </linearGradient>
        <radialGradient cx="44.3461988%" cy="43.8808738%" fx="44.3461988%" fy="43.8808738%" r="12.8105072%" gradientTransform="translate(0.443462,0.438809),scale(0.698399,1.000000),rotate(-171.457413),translate(-0.443462,-0.438809)" id="radialGradient-3">
            <stop stop-color="#EE352C" offset="0%"></stop>
            <stop stop-color="#A91D22" offset="100%"></stop>
        </radialGradient>
    </defs>
    <g id="6" stroke="none" stroke-width="1" fill="none" fill-rule="evenodd">
        <g id="icon-ms-sql" transform="translate(0.000000, 0.500000)" fill-rule="nonzero">
            <path d="M111.748643,90.4500184 L72.9705434,103.11244 L39.2341375,118.002068 L29.7958806,120.493787 C27.392152,122.780194 24.8717783,125.095932 22.1458225,127.44073 C19.1561649,130.019899 16.3716838,132.365103 14.2316571,134.06477 C11.8576643,135.940824 8.34033254,139.458021 6.55253916,141.685228 C3.88510872,145.026578 1.77481779,148.573105 0.866120814,151.299331 C-0.746096581,156.223703 0.0456848993,161.206331 3.15252838,165.808476 C7.13873859,171.670335 15.0820991,177.649516 24.343969,181.723717 C29.0633002,183.805218 37.0063904,186.472243 42.9855706,187.966869 C52.9216307,190.487783 72.149702,193.213739 82.730622,193.624363 C84.8699729,193.712218 87.742715,193.712218 87.8596305,193.624363 C88.0944077,193.477306 89.7358201,190.341402 91.64134,186.443318 C98.1483294,173.165232 102.837925,160.708122 105.387764,150.068542 C106.911856,143.620483 108.113449,135.032263 108.904555,124.861831 C109.110137,122.018554 109.197722,112.492577 109.021876,109.268142 C108.757904,103.992347 108.28889,99.71324 107.556715,95.521718 C107.439394,94.9060532 107.409659,94.3490488 107.46859,94.3198538 C107.585505,94.2319982 107.937198,94.1148124 112.714919,92.7368314 L111.748102,90.4500184 L111.748102,90.4500184 L111.748643,90.4500184 L111.748643,90.4500184 Z M102.896856,95.6383632 C103.248548,95.6383632 104.18617,104.636531 104.420542,110.32322 C104.479473,111.524814 104.449737,112.31619 104.391347,112.31619 C104.15711,112.31619 99.4377789,109.531979 96.0676391,107.421688 C93.1363716,105.574964 87.5675445,101.881651 86.688313,101.178265 C86.394605,100.973224 86.4238001,100.944029 88.8276638,100.123052 C92.9014593,98.7452067 102.574493,95.6383632 102.896856,95.6383632 L102.896856,95.6383632 Z M83.1413806,102.145488 C83.4053529,102.145488 84.0790024,102.526105 85.6912198,103.522928 C91.7290604,107.303962 99.9363931,111.876642 103.45359,113.401003 C104.537863,113.869882 104.654778,113.693765 102.16387,115.394109 C96.8292793,119.028491 90.1753683,122.604213 82.0269664,126.209535 C80.5910009,126.854395 79.3894069,127.352469 79.3602118,127.352469 C79.3018217,127.352469 79.4771273,126.620159 79.7113638,125.740657 C81.6752738,118.441751 82.7892825,111.055665 82.8482133,105.134875 C82.8774084,102.203608 82.8774084,102.203608 83.1413806,102.116158 C83.0824498,102.145488 83.1116449,102.145488 83.1413806,102.145488 L83.1413806,102.145488 Z M79.0673148,103.698774 C79.2426205,103.87435 79.125705,110.440271 78.891063,112.228064 C78.3635241,116.507577 77.5428179,120.493652 76.1949782,124.978611 C75.8724806,126.062344 75.5789078,126.971581 75.5209232,127.029971 C75.4030615,127.176352 71.3875211,123.248803 70.0686061,121.724711 C67.7821986,119.086611 65.9946755,116.448646 64.6756254,113.869476 C64.0014352,112.550426 62.9464925,109.971392 63.0342129,109.883266 C63.5030914,109.560904 78.9499939,103.581724 79.0673148,103.698774 Z M59.8977689,111.231511 C59.926964,111.231511 59.9561591,111.231511 59.9858948,111.260707 C60.044285,111.319367 60.249867,111.788516 60.4257133,112.31592 C61.3633351,114.866029 63.4733557,118.617732 65.2911551,121.021326 C67.2842602,123.659426 69.8931653,126.472967 72.0615761,128.319556 C72.7653668,128.905755 73.4098213,129.46249 73.4975417,129.550615 C73.6737935,129.726597 73.7323188,129.696996 68.9544623,131.514525 C63.415371,133.624816 57.3769897,135.735107 50.459512,137.962584 C48.8070793,138.495328 47.1561538,139.032736 45.5067553,139.574801 C45.2425127,139.662927 45.3306386,139.516141 46.0926844,138.314682 C49.5218902,132.950626 54.7390246,122.428231 57.6702921,114.983215 C58.168636,113.693495 58.6668447,112.404045 58.7549706,112.110878 C58.8722916,111.700255 59.0185373,111.553874 59.399425,111.348562 C59.6046016,111.290442 59.8100485,111.231511 59.8977689,111.231511 Z M54.03618,113.6643 C54.1239005,113.723231 52.629004,116.859134 51.1634379,119.731606 C48.3201611,125.271238 45.2133176,130.72342 41.0512611,137.34746 C40.3478759,138.490393 39.673956,139.545877 39.5858301,139.663062 C39.4394492,139.868374 39.3805184,139.809443 38.9116399,138.901017 C37.9150874,136.937107 37.0941108,134.416192 36.6545626,132.10059 C36.2147441,129.814182 36.30287,125.828242 36.801349,123.366259 C37.1819664,121.549135 37.1530416,121.578465 38.0322732,121.138647 C41.7839766,119.233532 53.9188591,113.547114 54.03618,113.6643 L54.03618,113.6643 Z M104.596794,115.716336 L104.596794,116.94726 C104.596794,123.48358 103.893408,132.452553 102.86712,138.989143 C102.691274,140.132076 102.544217,141.069698 102.515427,141.099434 C102.515427,141.099434 101.665526,140.865197 100.668973,140.571624 C96.2725453,139.193914 91.4948239,137.171478 87.185981,134.797756 C84.3424339,133.244199 80.209978,130.693819 80.3274341,130.576498 C80.3562237,130.547438 81.5875534,129.902578 83.023519,129.140397 C88.7691385,126.150875 94.2790347,122.92671 99.0567561,119.731876 C100.84482,118.530012 103.540905,116.595838 104.12778,116.068028 L104.596794,115.716336 Z M31.9061715,124.391736 C32.0233573,124.391736 31.9940271,124.626243 31.8181808,125.681456 C31.7008598,126.443772 31.5544789,127.850678 31.4962239,128.817494 C31.2611764,133.097007 31.9651023,136.262781 34.0753933,140.600549 C34.6615927,141.802413 35.1308766,142.798966 35.1011409,142.828026 C34.8958292,143.004142 15.4925874,148.690696 9.39554559,150.361168 C7.57842196,150.859242 5.9959403,151.29906 5.87807866,151.327985 C5.67330759,151.386916 5.64384218,151.357721 5.73169776,150.858972 C6.40575277,146.550669 9.68871288,140.922911 14.2609874,136.174385 C17.3094407,133.009016 19.7423643,131.162562 23.9044208,128.788029 C26.8940785,127.088362 31.4958184,124.538658 31.847511,124.421066 C31.8477813,124.391736 31.8769764,124.391736 31.9061715,124.391736 L31.9061715,124.391736 Z M77.6309438,132.569468 C77.6601389,132.540273 78.3635241,132.921566 79.2134254,133.41964 C85.4860432,137.054293 94.2205094,140.425108 101.664985,142.154241 L102.339581,142.301028 L101.401419,142.828026 C97.5033343,144.997248 84.6945321,150.331568 71.592968,155.226745 C69.6874481,155.92986 67.8117991,156.633651 67.4595659,156.780032 C67.1078732,156.926413 66.7853757,157.014539 66.7853757,156.985344 C66.7853757,156.955608 67.3133201,155.92986 67.9869696,154.669741 C71.6508175,147.811059 75.3442659,139.457616 77.22005,133.654011 C77.4550975,133.097142 77.601208,132.599069 77.6309438,132.569468 L77.6309438,132.569468 Z M72.9705434,134.09383 C73.0002791,134.123701 72.765502,134.73869 72.4721995,135.442075 C69.9223604,141.626567 66.5804695,148.368469 62.3013623,155.930401 C61.2170893,157.865116 60.3082572,159.418673 60.2785214,159.418673 C60.2497318,159.418673 59.3700948,158.890728 58.3150169,158.246004 C52.1007893,154.435504 46.5906227,149.745909 42.9857057,145.202694 L42.4578965,144.557835 L45.1249214,143.824984 C54.6803642,141.216619 62.7990303,138.402808 70.859847,134.944272 C72.0031859,134.475123 72.9413483,134.09383 72.9705434,134.09383 L72.9705434,134.09383 Z M101.929498,144.206007 C101.929498,144.206007 101.958828,144.235337 101.929498,144.206007 C101.958693,144.880197 100.463797,150.918308 99.2326024,155.285135 C98.2068548,158.948983 97.3270825,161.821725 95.7154058,166.892073 C95.0120205,169.120226 94.3968963,170.966274 94.3671606,170.966274 C94.3379655,170.966274 94.1621192,170.937079 93.9862729,170.878824 C85.281137,169.295532 77.4844277,167.097385 70.156732,164.166523 C68.1046961,163.345547 65.1738341,162.026497 64.9979878,161.880116 C64.9395976,161.820914 66.6983311,161.000749 68.9258078,160.033391 C82.2621491,154.200592 96.096699,147.576282 100.84482,144.733546 C101.401554,144.381718 101.841372,144.206007 101.929498,144.206007 L101.929498,144.206007 Z M35.0719458,146.492414 C35.1306063,146.550804 31.408098,151.91486 26.1905581,159.213091 C24.3734345,161.7632 22.2631435,164.752723 21.4719027,165.866461 C20.6803915,166.980335 19.4787976,168.739068 18.8046074,169.794281 L17.5730074,171.699531 L16.2539573,170.585792 C14.7004004,169.295802 12.0041804,166.540786 10.8024513,165.01656 C8.28153689,161.880656 6.5818694,158.568501 5.90767923,155.549783 C5.58518169,154.142608 5.58518169,153.438817 5.8779435,153.351367 C6.3174917,153.234181 14.1435312,151.387457 21.4716324,149.687113 C25.5458333,148.749492 30.2644887,147.635753 31.9645617,147.2254 C33.6647698,146.814371 35.0427507,146.492414 35.0719458,146.492414 L35.0719458,146.492414 Z M38.823514,147.92865 L39.7611358,148.983728 C43.9823935,153.702789 48.290966,157.191331 53.5082356,160.238973 C54.446398,160.766918 55.1496481,161.235526 55.0907173,161.265397 C54.8860814,161.411778 36.9767898,167.771575 28.682007,170.644182 C24.021877,172.28546 20.1819125,173.604375 20.1529878,173.604375 C20.1237927,173.604375 19.8598205,173.428799 19.5662477,173.223487 L19.0389791,172.842329 L19.8888804,171.61154 C22.6438961,167.625194 26.103108,163.258097 33.635845,154.171803 L38.823514,147.92865 Z M62.213777,164.664732 C62.2425666,164.635672 63.5322865,165.10428 65.1149033,165.691155 C68.9258078,167.127121 71.9442551,168.035548 75.9895313,169.061566 C80.9724292,170.32209 88.1826687,171.55315 92.4329863,171.904707 C93.0778462,171.963097 93.4295389,172.022028 93.3122179,172.110019 C93.1066358,172.22734 88.7984687,173.663576 85.6328296,174.660128 C80.5910009,176.24261 65.2031644,180.785689 52.6583343,184.391147 C50.3427316,185.065202 48.3494914,185.622206 48.2323056,185.651266 C47.9395437,185.710197 46.9719159,185.445955 46.9719159,185.328769 C46.9719159,185.270514 47.6753012,184.361952 48.5254729,183.365264 C52.7459195,178.323706 56.9377118,172.696218 60.4257133,167.361628 C61.3926653,165.895656 62.213777,164.694062 62.213777,164.664732 Z M57.0549304,164.811653 C57.0838224,164.840849 55.0029969,168.182064 51.3688848,173.926872 C49.8150575,176.359661 48.0856543,179.114811 47.4699895,180.082169 C46.88379,181.020061 46.0045585,182.485898 45.5064849,183.306333 L44.6563133,184.801365 L44.2167651,184.684044 C43.1612817,184.390877 35.7458657,181.781972 33.7819556,180.990731 C31.349032,180.023373 28.8283879,178.851245 26.9523335,177.854692 C24.6078061,176.594167 21.6769441,174.718113 21.9111806,174.659858 C21.9697059,174.630663 25.9853815,173.545714 30.8213579,172.22707 C43.6596256,168.738663 50.7818744,166.716497 55.4426802,165.251066 C56.2928519,164.987229 57.0254322,164.781918 57.0549304,164.811653 Z M93.5464544,173.369868 L93.5756495,173.369868 C93.6929704,173.663305 88.9449848,186.852995 87.2149058,191.014917 C86.8344235,191.952809 86.688313,192.187721 86.4827309,192.15785 C85.9843871,192.129061 79.0966451,191.161703 74.9047177,190.546038 C67.6067577,189.4323 55.3546895,187.292273 52.2773114,186.589158 L51.5739262,186.442777 L55.9406186,185.445549 C65.3203502,183.335258 69.8340993,182.192325 74.4063738,180.785419 C80.1807829,179.026821 85.8966667,176.828404 91.6705351,174.132049 C92.5790969,173.72156 93.3412778,173.399198 93.5464544,173.369868 Z" id="Shape" fill="url(#linearGradient-1)"></path>
            <path d="M71.7689494,0.0559572436 C71.1240895,-0.0314928448 60.7184751,3.72021056 54.0065795,6.44576084 C44.9493454,10.1393444 37.9152226,13.6568113 33.5770494,16.7044537 C31.9652375,17.8480629 29.9423966,19.870228 29.6204398,20.6614688 C29.5032539,20.9546361 29.4443231,21.3063287 29.4443231,21.6580214 L33.3721432,25.3805297 L42.7220038,28.3701873 L64.9689279,32.3565327 L90.4102806,36.723901 L90.6742529,34.5256193 C90.5865324,34.5256193 90.5276016,34.4964242 90.4404219,34.4964242 L87.0981254,33.9686149 L86.4244759,32.767021 C82.9656695,26.6702495 79.1553056,19.1080471 76.9278288,14.0079633 C75.1986959,10.0509482 73.5571483,5.47894402 72.6483162,2.1959839 C72.1499723,0.202878799 72.0915821,0.0856929769 71.7696252,0.0564978933 L71.7696252,0.0558220812 L71.7689494,0.0558220812 L71.7689494,0.0559572436 Z M71.2993952,1.55125914 L71.3295364,1.55125914 C71.358326,1.5801839 71.475647,2.40143079 71.5931031,3.36811245 C72.0909063,7.47218429 73.0002791,11.4285236 74.4362447,15.7080363 C75.5205177,18.9323359 75.5205177,18.7566248 74.2603984,18.3753316 C71.2707407,17.5548956 57.8758742,15.239293 48.1740505,13.8910478 C46.6204936,13.6857361 45.3014435,13.4806947 45.3014435,13.4514996 C45.1842577,13.3343138 52.3065065,9.61153514 55.4428154,8.14637446 C59.4583558,6.29937994 70.4790944,1.69764005 71.2993952,1.55125914 L71.2993952,1.55125914 Z M43.0440959,14.6822886 L44.1877052,15.062906 C50.4011218,17.1736024 66.0233299,20.1633953 74.6411509,20.8667805 C75.6081029,20.9547713 76.4292147,21.0428972 76.4580043,21.0428972 C76.4871993,21.0720922 75.6670337,21.5117756 74.6115504,22.0098491 C70.4498993,24.090945 65.8772194,26.6410544 62.7115802,28.6049645 C61.7739585,29.1908936 60.9235165,29.6601775 60.806601,29.6601775 C60.68928,29.6601775 60.0740207,29.5428565 59.4291608,29.4548658 L58.2567619,29.2787491 L55.3260351,26.4061421 C50.1672908,21.3943195 46.1222849,17.5254302 44.568728,16.0595937 L43.0440959,14.6822886 L43.0440959,14.6822886 Z M41.8721025,15.5907153 L46.0048288,20.7495947 C48.2615006,23.5927363 50.547773,26.3770822 51.0465224,26.9923416 C51.5443256,27.6082767 51.954949,28.1067558 51.925754,28.1359509 C51.808433,28.2238064 45.946709,27.0804675 42.8393248,26.3773526 C39.6444906,25.6443667 38.3255757,25.2926741 36.3618008,24.6774147 L34.7495834,24.1496055 L34.7495834,23.738982 C34.7787785,21.775072 37.2704978,18.84421 41.4910797,15.8548227 L41.8721025,15.5907153 Z M76.9860838,22.6253788 C77.10354,22.6253788 77.2496506,22.8890807 77.6013432,23.6804567 C78.5978958,25.8786032 81.705415,31.7996635 82.466785,32.942597 C82.7019676,33.3240253 83.1116449,33.3532204 78.9793241,32.6790302 C69.043264,31.0665425 65.8480243,30.5395442 65.8480243,30.4808837 C65.8480243,30.4516887 66.1411916,30.2463769 66.5222145,30.0410652 C69.599998,28.3413977 72.7067063,26.172176 75.4621275,23.8565733 C76.1363177,23.299569 76.7518474,22.77203 76.8687629,22.6839041 C76.8979579,22.6253788 76.9568888,22.5961837 76.9860838,22.6253788 Z" id="Shape" fill="url(#linearGradient-2)"></path>
            <path d="M29.8249405,20.2511157 C29.8249405,20.2511157 29.1804861,21.277404 29.7958806,22.8016306 C30.1773089,23.7392524 31.2909122,24.8821858 32.5510314,26.054855 C32.5510314,26.054855 45.5942054,38.7755314 47.1770925,40.5930605 C54.3871969,48.9170384 57.5236409,57.1241008 57.8168082,68.4381418 C57.9926545,75.707177 56.6146736,82.0968454 53.1856029,89.5125318 C47.0889666,102.819678 34.2213687,117.5044 14.3781732,133.801203 L17.2803808,132.833846 C19.1561649,131.42667 21.7062743,129.932314 27.6854545,126.649354 C41.490539,119.086746 57.0252971,112.140208 76.0773869,104.988494 C103.511439,94.6708706 148.621087,82.5946486 174.296677,78.6675044 L176.964377,78.256881 L176.553754,77.612021 C174.209362,73.9773683 172.596739,71.7206964 170.662024,69.3172382 C165.034807,62.3412352 158.20586,56.6845526 149.851876,51.9946868 C138.362124,45.5759584 123.501151,40.5638654 104.684244,36.8413571 C101.137717,36.1375664 93.3410075,34.7894563 87.0099995,33.822234 C73.5855324,31.7416788 64.9095916,30.3051726 55.3545543,28.6637601 C51.9254836,28.0772904 46.7956641,27.198194 43.3956534,26.4656136 C41.6370551,26.0841853 38.2666449,25.2929444 35.6286798,24.3843826 C33.5183889,23.5632709 30.4698004,22.7425646 29.8249405,20.2511157 L29.8249405,20.2511157 Z M37.3875485,27.5790817 C37.4164732,27.5501569 37.8853517,27.7254626 38.5012868,27.9307743 C39.6150252,28.3113917 41.051126,28.7512102 42.7516044,29.2204941 C44.0380413,29.5743412 45.3277263,29.9162717 46.6204936,30.2462418 C48.3790919,30.6856548 49.8443878,31.0961431 49.8735829,31.0961431 C50.0791649,31.3014548 53.0396275,40.7680958 54.03618,44.4027486 C54.4166623,45.7807295 54.7103702,46.952858 54.68104,46.952858 C54.6508987,46.9825938 54.3289419,46.4839796 53.9480541,45.8099246 C50.518578,39.7718136 45.0961318,33.6459822 38.823514,28.7216096 C38.0032133,28.1359509 37.3875485,27.6082767 37.3875485,27.5790817 L37.3875485,27.5790817 Z M51.8082978,31.5652919 C51.954949,31.5652919 52.599809,31.6532826 53.3907795,31.8289938 C58.3736774,32.9427321 67.3135904,34.6428051 73.0289336,35.6101626 C73.996291,35.7565435 74.7586071,35.9327953 74.7586071,35.9910503 C74.7586071,36.0499811 74.406509,36.2547522 73.9666905,36.4895293 C72.9998736,36.9876028 69.1012487,39.3029352 67.8119343,40.1824371 C64.5581693,42.3513885 61.6274424,44.6961862 59.5168812,46.8064771 C58.6669799,47.6566488 57.9338589,48.360034 57.9338589,48.360034 C57.9338589,48.360034 57.7585532,47.8619605 57.6113613,47.2460253 C56.5568241,43.1718244 54.3581369,37.1337134 52.3650318,32.8839365 C52.0425343,32.2100166 51.7785621,31.5943518 51.7785621,31.5359616 C51.7785621,31.594487 51.7785621,31.5652919 51.8082978,31.5652919 L51.8082978,31.5652919 Z M77.1911252,36.4015386 C77.3669716,36.4599287 77.6601389,37.4566165 78.2462031,39.654763 C79.3308816,43.9050805 79.8292254,48.6533365 79.6533791,53.0792301 C79.5944483,54.3102894 79.5360581,55.4532229 79.4771273,55.6001445 L79.3894069,55.8929063 L77.8653154,55.3948327 C74.7290065,54.3982802 69.6291931,52.9031134 65.2620952,51.6723244 C62.7702407,50.9981342 60.748346,50.3826046 60.748346,50.3240792 C60.748346,50.1479626 64.3829988,46.5135802 65.9362853,45.1361399 C68.8960721,42.5270996 76.927153,36.3134127 77.1911252,36.4015386 L77.1911252,36.4015386 Z M79.2135606,36.6943004 C79.3016865,36.6068503 91.3483079,38.6874055 96.8294145,39.7427537 C100.903886,40.5339945 106.824405,41.765189 107.175963,41.9119754 C107.351809,41.9703656 106.736144,42.3220582 104.772234,43.2012898 C97.0344559,46.6895616 91.2892419,49.8253299 85.5743043,53.6360993 C84.0794079,54.6326518 82.8188831,55.4532229 82.789688,55.4532229 C82.7604929,55.4532229 82.7311627,54.6034567 82.7311627,53.5774388 C82.7311627,48.0086117 81.6172891,42.3808539 79.5651181,37.6325979 C79.3600767,37.1635843 79.1842303,36.7240361 79.2135606,36.6943004 L79.2135606,36.6943004 Z M110.370662,42.8498675 C110.458788,42.9377231 110.077495,45.3121214 109.725802,46.7187567 C108.670724,51.086125 105.827718,57.5641896 102.340122,63.6604205 C101.724051,64.7449637 101.167317,65.6243305 101.108251,65.6535256 C101.050267,65.6827206 100.258756,65.2429021 99.3499234,64.7153632 C95.9500478,62.7222581 92.0811585,60.8464739 87.8601712,59.0876053 C86.6881778,58.5895318 85.6620247,58.1789083 85.6326944,58.1207885 C85.4271124,57.9446719 94.8653693,51.7015195 99.8482672,48.7118618 C103.805282,46.3085388 110.253341,42.7324114 110.370662,42.8498675 L110.370662,42.8498675 Z M112.598139,43.201425 C112.862111,43.201425 118.196701,44.6671263 120.980777,45.4878325 C127.86906,47.5397333 135.782684,50.441265 140.941429,52.7860628 L143.08078,53.7536906 L141.586424,54.1051129 C128.983204,57.0066446 118.196701,60.3485356 107.791222,64.5691174 C106.941186,64.9208101 106.179005,65.2139774 106.12102,65.2139774 C106.062089,65.2139774 106.355257,64.5399223 106.73628,63.7189458 C109.872588,57.0655755 111.895024,50.1189027 112.392827,44.1978424 C112.422698,43.640838 112.510013,43.201425 112.598139,43.201425 L112.598139,43.201425 Z M59.4876861,55.3948327 C59.5754065,55.3067068 63.6497426,56.2741995 65.8480243,56.8891885 C69.1893746,57.827486 76.2822931,60.2013437 76.2822931,60.3774603 C76.2822931,60.4066554 75.4911874,61.0808456 74.5535657,61.9018222 C70.7138716,65.0966564 67.0204232,68.4669314 62.5942592,72.7464441 C61.2752092,74.0072392 60.1617411,75.0329868 60.1033509,75.0329868 C60.0444201,75.0329868 60.0156305,74.856735 60.0444201,74.6223634 C60.7184751,69.6979908 60.5723645,63.367118 59.6343373,56.9481193 C59.5460763,56.1271427 59.4583558,55.4240278 59.4876861,55.3948327 L59.4876861,55.3948327 Z M145.104026,55.4829586 C145.162011,55.5412136 143.227836,58.5895318 141.996912,60.3186647 C140.238584,62.8393087 137.658469,66.1813348 131.825669,73.5088953 C128.748697,77.3775142 125.289485,81.7451528 124.146822,83.2105838 C122.973882,84.6760148 122.007065,85.9068038 121.97733,85.9068038 C121.948135,85.9068038 121.567652,85.3795352 121.157029,84.7348105 C117.874069,79.8104379 113.946249,75.5017301 109.285848,71.6328409 C108.406617,70.899855 107.4398,70.1084791 107.117302,69.8739722 C106.794805,69.6396006 106.530833,69.4050938 106.530833,69.3758987 C106.530833,69.2881783 111.51319,67.1480165 115.294899,65.6241953 C121.91921,62.9274346 130.945897,59.7034053 137.717264,57.6221743 C141.263926,56.5085711 145.045095,55.4240278 145.104026,55.4829586 L145.104026,55.4829586 Z M147.360698,56.0687526 C147.477613,56.0396927 148.181404,56.3913853 149.03144,56.8891885 C156.154095,60.9633894 163.129557,66.2102596 168.640399,71.6035106 C170.193686,73.1278724 174.03338,77.1140827 173.974449,77.1432777 C173.974449,77.1432777 172.626204,77.2604636 171.043722,77.3775142 C158.703934,78.3158118 142.905879,80.9240411 127.722679,84.5877537 C126.696931,84.8219902 125.788505,85.0273019 125.729574,85.0273019 C125.671589,85.0273019 126.814252,83.8843685 128.250758,82.5069282 C137.160936,73.9189781 141.235407,68.496532 146.041918,58.8237683 C146.715838,57.3879378 147.302308,56.1568785 147.360698,56.0687526 C147.331503,56.0687526 147.331503,56.0687526 147.360698,56.0687526 L147.360698,56.0687526 Z M82.0858973,62.7519938 C82.4965207,62.8394439 86.3068846,64.6280482 89.1792213,66.0638787 C91.8171863,67.3823881 95.7743366,69.4932197 95.979378,69.6687957 C96.0085731,69.6979908 94.6013971,70.4308414 92.8728048,71.2810131 C87.3619625,74.0361639 82.6431719,76.6445284 77.7186642,79.6343212 C76.3118937,80.4844929 75.1394948,81.1882836 75.1102997,81.1882836 C74.9929787,81.1882836 75.0221738,81.070422 75.813685,79.6343212 C78.4517852,74.8278103 80.5618058,69.0828666 81.7639404,63.4843038 C81.8807207,63.0447556 81.9981769,62.7519938 82.0858973,62.7519938 L82.0858973,62.7519938 Z M78.2753982,63.4551087 C78.3635241,63.5432346 77.3669716,67.1481516 76.7517122,69.1120617 C75.5495776,72.83457 73.5272774,77.4948352 71.5637729,81.012167 C71.0942186,81.8324677 70.3909685,83.034332 70.0099456,83.708387 L69.2773653,84.8807859 L67.6359528,83.2984394 C65.7309736,81.4517152 64.1771464,80.3086466 62.1844468,79.2824934 C61.3925301,78.8725458 60.7772708,78.5204477 60.7772708,78.4621927 C60.7772708,78.2276859 65.7893638,73.6846065 69.6290579,70.4017815 C72.3840736,68.0275184 78.1876778,63.3672532 78.2753982,63.4551087 L78.2753982,63.4551087 Z M101.577941,73.0398817 L103.014312,73.9775034 C106.296326,76.1175301 110.165215,78.9604014 113.126218,81.4517152 C114.79642,82.8290203 118.02045,85.7312278 118.66585,86.4346131 L119.017002,86.8160415 L116.643415,87.4899613 C103.218948,91.2120641 92.8430691,94.5242193 80.7376521,98.9797135 C79.3894069,99.477787 78.2462031,99.8881401 78.1580772,99.8881401 C77.9827716,99.8881401 77.8357148,100.034521 80.8551082,97.2499048 C88.5932922,90.1280615 95.4515687,82.2722862 100.551788,74.6222282 L101.577941,73.0398817 L101.577941,73.0398817 Z M95.4518391,74.5639732 C95.5102292,74.6223634 91.4948239,80.2791811 89.0910954,83.4741505 C86.2187587,87.2846496 81.1185398,93.6741829 77.6013432,97.8359691 C76.1361825,99.5656426 74.8760632,101.001743 74.8171324,101.031209 C74.7290065,101.060404 74.6998114,100.620856 74.6998114,99.9466655 C74.6998114,96.3997331 73.7913848,92.6186995 72.2083625,89.3948053 C71.5341723,88.0465602 71.4168513,87.7240626 71.563908,87.5776817 C72.1206421,87.0792027 80.6499317,82.2136258 86.0429124,79.312094 C89.67743,77.3776494 95.3631725,74.5053127 95.4518391,74.5639732 L95.4518391,74.5639732 Z M58.4028725,83.6502672 C58.4909984,83.6502672 59.1651886,84.0016895 59.9273695,84.4123129 C61.8031536,85.4380605 63.4738963,86.5811292 64.9686576,87.8124589 C65.0270477,87.870849 64.2652723,88.486649 63.2687197,89.218959 C60.4841035,91.2120641 56.2635216,94.4071687 53.8018084,96.3710787 C51.221828,98.4228443 51.1345131,98.4813696 51.4272749,98.0418214 C53.3619899,95.0813589 54.3288067,93.4106161 55.355095,91.2711301 C56.2635216,89.3661509 57.1719483,87.1090736 57.8168082,85.1451636 C58.0511799,84.2951271 58.3444823,83.6502672 58.4028725,83.6502672 Z M68.2809479,91.3880456 C68.4270585,91.3591209 68.6034455,91.6225524 69.394416,92.7952216 C71.0651587,95.2861299 72.3548785,98.6280209 72.6777816,101.324511 L72.7357663,101.910981 L68.7207664,103.464538 C61.5391814,106.248749 54.9154116,109.00417 50.4303169,111.05553 C49.1703328,111.642 46.9719159,112.696942 45.5359504,113.400868 C44.0995793,114.133178 42.9271804,114.690183 42.9271804,114.660988 C42.9271804,114.631793 43.8356071,113.957602 44.9493454,113.136626 C53.7138177,106.776558 61.3049449,99.8002846 66.9910929,92.8245519 C67.6067577,92.091566 68.1638973,91.4173759 68.2220171,91.3881808 L68.2809479,91.3880456 Z M63.7378685,92.5020543 C63.8551895,92.6192401 60.5138392,96.4001386 58.2275668,98.7156061 C52.5706139,104.49015 46.9721863,109.00417 40.0253783,113.400868 C39.1461468,113.957602 38.3549059,114.455676 38.26678,114.514607 C38.0614683,114.631793 38.3251702,114.33849 41.3736235,111.026335 C43.3083384,108.945239 44.7736343,107.186641 46.444377,105.01796 C47.5581154,103.581994 47.7634271,103.376682 49.3757797,102.233073 C53.6844874,99.1260944 63.6205475,92.3845982 63.7378685,92.5020543 Z" id="Shape" fill="url(#radialGradient-3)"></path>
        </g>
    </g>
</svg>